<?xml version="1.0" standalone="no"?>
<!DOCTYPE svg PUBLIC "-//W3C//DTD SVG 1.1//EN" "http://www.w3.org/Graphics/SVG/1.1/DTD/svg11.dtd">
<svg xmlns="http://www.w3.org/2000/svg">
<defs >
<font id="Recursive" horiz-adv-x="628" ><font-face
    font-family="Recursive Sans Linear Light Black"
    units-per-em="1000"
    panose-1="0 0 0 0 0 0 0 0 0 0"
    ascent="950"
    descent="-250"
    alphabetic="0" />
<glyph unicode=" " horiz-adv-x="300" />
<glyph unicode="!" horiz-adv-x="350" d="M242 311H118Q115 311 114 312T110 314Q109 316 107 319T101 340T87 395T62 502V590Q62 618 62 645T62 700Q100 700 153 700T277 700Q280 700 282 699T286 695T288 689V502Q280 470 273 438T258 375T242 311ZM284 -3Q246
-3 214 -3T149 -3T78 -3Q75 -3 73 -2T69 1T67 8V220Q106 220 138 220T202 220T273 220Q277 220 279 219T282 215T284 209V-3Z" />
<glyph unicode="&quot;" horiz-adv-x="600" d="M243 433Q208 433 174 433T105 433Q101 433 98 436T93 444L78 648Q77 666 76 682T73 715T70 750Q120 750 166 750T254 750Q259 750 262 747T264 737L243 433ZM507 433Q472 433 438 433T369 433Q365 433 361 436T357
444L335 750Q386 750 431 750T519 750Q524 750 527 747T529 737L507 433Z" />
<glyph unicode="#" horiz-adv-x="600" d="M170 720Q202 720 243 720T316 720Q321 720 324 718T325 709Q308 619 292 530T260 350T227 171T194 -9Q193 -16 189 -18T180 -20Q147 -20 108 -20T35 -20Q51 72 67 164T101 350T136 535T170 720ZM407 720Q427 720 453
720T506 720T553 720Q558 720 561 718T562 709Q546 619 530 530T497 350T464 171T431 -9Q430 -16 426 -18T417 -20Q397 -20 371 -20T319 -20T272 -20Q289 72 305 164T339 350T373 535T407 720ZM587 408H65Q59 408 56 411T53 419Q53 423 53 439T53 476T53 519T53
557T53 577H575Q577 577 580 577T584 574Q586 573 586 571T587 566Q587 562 587 546T587 509T587 466T587 428T587 408ZM13 295H535Q541 295 544 292T547 284Q547 280 547 265T547 228T547 186T547 150T547 130H25Q23 130 21 131T16 133Q15 135 14 137T13 141Q13
145 13 160T13 197T13 239T13 275T13 295Z" />
<glyph unicode="$" horiz-adv-x="600" d="M292 -21Q207 -21 148 -9T62 21Q56 25 54 29T52 40Q52 71 52 119T52 209H72Q117 186 167 170T286 154Q345 154 366 166T388 200V213Q388 226 384 234T364 250T316 268L224 293Q173 307 139 326T86 368T58 417T50 470V512Q50
559 68 597T123 663T210 706T327 721Q392 721 443 713T520 691Q526 689 528 685T531 673Q531 631 531 584T531 505H511Q471 525 423 538T311 552Q278 552 259 546T231 530T223 506V498Q223 484 228 475T247 459T290 443L388 415Q456 396 491 370T540 307T554 224V173Q554
115 523 72T433 4T292 -21ZM383 464Q363 470 340 476T304 486Q298 488 296 492T293 502Q293 527 293 554T293 610T293 663T293 710Q293 724 293 737T293 763T293 789T293 815Q322 815 341 815T381 815T429 815Q434 815 437 812T439 802Q433 768 427 732T415 658T403
585T391 519T383 464ZM230 242Q250 236 271 231T310 221Q316 220 318 216T321 202Q321 184 321 164T321 121T321 77T321 35T321 -3Q321 -18 321 -33T321 -62T321 -90T321 -114Q295 -114 275 -114T232 -114T179 -114Q176 -114 174 -113T170 -108T169 -98Q173 -77
178 -47T189 19T203 93T217 169T230 242Z" />
<glyph unicode="%" horiz-adv-x="600" d="M168 710Q218 710 252 691T304 641T322 569V494Q322 455 304 423T252 372T168 353Q95 353 55 394T15 494V569Q15 609 33 640T85 691T168 710ZM136 584Q137 573 139 566T145 555Q149 551 155 549T170 547Q186 547 194 555T203
584V480Q203 491 201 497T194 509Q186 517 170 517Q154 517 146 508T136 480V584ZM432 347Q481 347 515 328T567 278T585 206V131Q585 92 567 60T515 9T432 -10Q358 -10 318 31T278 131V206Q278 246 296 277T348 328T432 347ZM396 224Q397 214 399 207T405 195Q409
192 415 190T430 187Q446 187 454 196T463 224V120Q463 131 461 138T454 149Q446 157 430 157Q414 157 406 148T396 120V224ZM354 396Q357 415 360 440T368 494T378 553T388 612T397 666T402 710Q422 710 445 710T493 710T539 710T576 710Q580 710 582 709T584
704T584 697Q583 693 577 671T560 616T540 549T520 481T504 428T496 403Q495 399 493 398T486 396Q474 396 457 396T421 396T384 396T354 396ZM246 305Q244 286 240 261T232 206T222 147T212 88T204 34T198 -10Q178 -10 155 -10T107 -10T61 -10T24 -10Q20 -10 18
-9T16 -4T16 3Q17 8 23 29T40 83T60 150T80 218T96 271T104 297Q106 302 108 303T114 305Q126 305 143 305T179 305T216 305T246 305Z" />
<glyph unicode="&amp;" horiz-adv-x="600" d="M274 457Q297 425 318 396T359 341T397 290T433 243T467 199Q479 184 491 179T525 173Q532 173 540 173T557 173H577Q577 131 577 89T577 4Q577 -1 574 -4T566 -7Q558 -7 548 -7T528 -7Q483 -7 453 1T398 28T347 81Q331
102 314 125T277 173T237 225T196 279T154 333Q124 372 106 401T80 457T71 517V536Q71 572 85 603T129 658T205 695T317 709Q366 709 402 705T460 696T487 685Q489 684 489 682T490 675Q490 639 490 603T490 529H470Q433 537 399 541T326 545Q294 545 279 543T257
534Q252 530 250 525T248 512Q248 505 250 498T258 481T274 457ZM180 -9Q134 -9 97 9T39 64T18 154V213Q18 276 47 309T126 351V408L249 290Q227 289 213 280T190 255T182 219V191Q182 161 194 147T230 132Q261 132 279 143T318 184L380 78H330Q313 35 277 13T180
-9ZM423 435Q458 435 495 435T559 435Q565 435 567 432T570 424V347Q570 318 559 293T525 250T465 223V159L396 270Q412 283 417 296T423 328Q423 354 423 381T423 435Z" />
<glyph unicode="&apos;" horiz-adv-x="350" d="M256 433Q218 433 181 433T106 433Q102 433 98 436T94 444L79 643Q78 661 77 678T74 714T71 750Q126 750 175 750T269 750Q274 750 277 747T279 737L256 433Z" />
<glyph unicode="(" horiz-adv-x="400" d="M180 739Q186 747 191 748T206 750Q240 750 268 750T327 750T393 750V730Q347 669 317 605T273 470T259 323V314Q259 233 272 163T315 31T393 -93V-113Q357 -113 328 -113T270 -113T208 -113Q197 -113 192 -112T180 -102Q135
-47 107 17T66 156T52 314V323Q52 405 66 479T108 619T180 739Z" />
<glyph unicode=")" horiz-adv-x="400" d="M220 -102Q214 -110 209 -111T194 -113Q160 -113 132 -113T73 -113T7 -113V-93Q54 -32 83 32T127 167T141 314V323Q141 405 128 474T86 607T7 730V750Q43 750 72 750T130 750T192 750Q203 750 208 749T220 739Q265 684
293 619T334 481T348 323V314Q348 232 334 158T292 18T220 -102Z" />
<glyph unicode="*" horiz-adv-x="600" d="M375 761Q379 761 381 759T382 751Q373 715 365 687T347 635T325 581L343 570Q363 596 380 616T419 658T472 708Q492 674 511 642T550 575Q553 569 552 565T544 559Q509 549 481 543T425 534T366 527V507Q401 502 429
498T486 486T555 468Q535 434 517 401T478 333Q475 328 471 327T461 330Q433 358 414 377T379 417T343 465L324 454Q333 439 339 425T350 395T359 362Q364 345 367 333T374 307T383 270Q344 270 304 270T224 270Q220 270 218 273T217 280Q226 313 234 339T252 393T276
454L257 465Q236 437 218 416T178 373T129 325Q110 359 90 392T51 459Q48 465 49 469T55 474Q91 484 118 489T173 499T235 507V527Q200 532 171 536T111 548T43 566Q62 600 81 632T121 699Q125 704 129 705T136 703Q165 676 184 656T219 617T255 570L273 581Q266
593 261 604T251 629T243 660Q236 683 230 705T216 761Q256 761 295 761T375 761Z" />
<glyph unicode="+" horiz-adv-x="600" d="M208 538Q259 538 299 538T381 538Q386 538 389 535T392 527Q392 450 392 373T392 218T392 62Q345 62 306 62T219 62Q214 62 211 65T208 73Q208 134 208 195T208 318T208 440Q208 467 208 492T208 538ZM60 391H529Q533
391 535 390T538 386T540 380Q540 337 540 295T540 209H71Q68 209 66 210T62 214T60 220Q60 263 60 305T60 391Z" />
<glyph unicode="," horiz-adv-x="350" d="M188 -193Q148 -193 102 -193T19 -193Q28 -146 37 -98T55 0T73 97T91 193Q126 193 157 193T222 193T299 193Q303 193 305 192T307 187T307 180Q297 145 284 100T255 7T226 -91T198 -186Q197 -190 194 -191T188 -193Z" />
<glyph unicode="-" horiz-adv-x="450" d="M46 394H393Q397 394 399 393T402 389T404 383Q404 338 404 295T404 206H57Q54 206 52 206T49 208T47 212T46 217Q46 262 46 305T46 394Z" />
<glyph unicode="." horiz-adv-x="350" d="M283 -3Q245 -3 213 -3T148 -3T78 -3Q75 -3 73 -2T69 1T67 8V220Q105 220 137 220T201 220T272 220Q276 220 278 219T281 215T283 209V-3Z" />
<glyph unicode="/" horiz-adv-x="600" d="M566 750Q513 606 459 461T351 171T242 -119Q241 -123 239 -125T233 -129T227 -130Q180 -130 134 -130T40 -130Q50 -103 60 -76T81 -21Q129 106 176 233T272 488T366 743Q368 747 371 748T378 750Q426 750 472 750T566 750Z" />
<glyph unicode="0" horiz-adv-x="600" d="M300 720Q374 720 433 690T528 602T563 461V240Q563 157 530 99T438 11T300 -20Q241 -20 193 -3T110 47T56 129T37 240V461Q37 544 72 602T167 690T300 720ZM300 550Q277 550 262 541T239 514T231 466V229Q231 214 233
202T240 182T249 167Q258 159 270 155T298 150Q322 150 337 158T361 183T369 229V467Q369 482 367 494T360 515T350 531Q342 540 330 545T300 550ZM432 553V364H334L351 384Q349 353 343 332T325 294T296 261Q279 245 260 227T219 192T174 156V344H271L248 322Q251
348 257 367T277 404T310 442Q337 469 366 495T432 553Z" />
<glyph unicode="1" horiz-adv-x="600" d="M229 710Q232 710 252 710T300 710T356 710T403 710T426 710Q430 710 432 709T435 705T437 699Q437 697 437 664T437 578T437 461T437 334T437 217T437 129T437 92H229L237 120Q237 127 237 141T237 171T237 200Q237 206
237 224T237 270T237 331T237 398T237 465T237 524T237 569L261 544H196L227 564Q208 524 191 498T158 453T124 421Q111 410 101 404T85 394T75 391Q73 391 71 392T68 395T67 401V603Q84 615 105 629T148 657Q163 667 178 677T207 696T229 710ZM53 177Q56 177 83
177T154 177T249 177T352 177T448 177T520 177T552 177Q557 177 560 174T563 166Q563 160 563 136T563 82T563 29T563 0Q561 0 533 0T462 0T366 0T262 0T166 0T95 0T64 0Q62 0 60 1T56 3Q55 5 54 6T53 11Q53 15 53 31T53 70T53 117T53 157T53 177Z" />
<glyph unicode="2" horiz-adv-x="600" d="M294 720Q356 720 403 708T483 670T532 609T548 527V507Q548 469 540 439T511 382T457 332T369 283Q323 262 295 244T252 209T231 172T224 129L202 150H279L219 135Q243 150 267 159T324 173T400 177H549Q554 177 557
174T560 166Q560 163 560 147T560 107T560 60T560 20T560 0Q558 0 531 0T460 0T365 0T261 0T166 0T96 0T66 0Q63 0 61 1T57 5T55 11V129Q55 187 70 232T123 315T232 388Q277 410 303 425T343 452T360 472T365 491V495Q365 504 363 510T355 522Q350 528 334 531T287
535Q233 535 185 522T97 485H77Q77 488 77 505T77 547T77 596T77 637T77 657Q77 664 78 667T85 673Q114 690 169 705T294 720Z" />
<glyph unicode="3" horiz-adv-x="600" d="M275 720Q363 720 425 701T521 644T555 546V528Q555 476 535 442T474 389T370 362L399 394V319L370 349Q436 344 479 327T543 279T565 199V178Q565 105 528 62T425 -1T269 -20Q217 -20 173 -16T96 -4T48 10Q44 12 43 15T41
25Q41 28 41 44T41 84T41 130T41 169T41 189H61Q94 181 124 176T187 169T262 167Q307 167 331 172T366 188T376 212V218Q376 232 369 242T340 259T273 269T150 273Q144 273 142 275T139 284Q139 288 139 309T139 357T139 405T139 431Q218 431 264 434T331 444T359
461T365 485V488Q365 503 357 512T326 527T262 532Q204 532 160 526T74 508H54Q54 511 54 527T54 565T54 610T54 649T54 668Q54 675 56 678T64 685Q87 696 143 708T275 720Z" />
<glyph unicode="4" horiz-adv-x="600" d="M255 700Q258 700 281 700T337 700T403 700T459 700T485 700V680Q460 644 433 606T377 528T320 447T260 364T199 277L218 337V254L192 271Q219 286 246 294T306 305T383 308H556Q560 308 562 307T565 303T567 297Q567
294 567 278T567 238T567 192T567 152T567 132H44Q41 132 39 133T35 137T33 143V301Q33 303 42 322T68 372T105 440T145 516T185 590T218 652T239 691Q241 695 243 697T248 699T255 700ZM373 419Q377 419 395 419T438 419T481 419T504 419Q508 419 510 418T513
414T515 408V97Q515 93 515 79T515 48T515 18T515 0Q512 0 493 0T448 0T394 0T348 0T326 0Q321 0 318 3T315 11Q315 14 315 41T315 106T315 181T315 246T315 276Q318 284 326 305T345 352T363 396T373 419Z" />
<glyph unicode="5" horiz-adv-x="600" d="M88 700Q90 700 114 700T176 700T258 700T348 700T431 700T493 700T519 700Q524 700 527 697T530 689Q530 686 530 670T530 632T530 587T530 548T530 529Q528 529 507 529T453 529T384 529T314 529T257 529T227 529Q183
529 152 545T104 588T88 648Q88 660 88 671T88 700ZM88 700H281L262 604Q260 584 259 564T255 518Q254 499 253 478T250 433T246 377L219 405H295L239 377Q262 407 297 421T387 436Q430 436 463 424T519 387T553 326T565 242V211Q565 147 545 103T486 32T396 -7T282
-20Q226 -20 182 -16T106 -4T57 10Q51 13 50 16T48 26Q48 29 48 45T48 84T48 130T48 169T48 189H68Q115 177 162 172T269 167Q328 167 349 181T371 224V239Q371 258 364 270T343 288T305 294Q284 294 268 290T240 278H73Q66 278 63 281T61 291Q62 303 64 335T69
412T75 509T82 609T88 700Z" />
<glyph unicode="6" horiz-adv-x="600" d="M348 720Q403 720 448 712T518 692Q523 690 524 687T526 676Q526 673 526 657T526 619T526 575T526 536T526 516H506Q471 528 436 534T364 540Q329 540 305 533T266 510Q251 495 244 471T237 414V254Q237 231 239 216T245
191T255 175Q264 166 278 163T310 159Q343 159 361 176T380 224V232Q380 248 376 259T365 276Q359 282 345 286T308 291Q283 291 254 284T199 263V394H282L242 371Q267 416 300 433T386 451Q442 451 482 428T545 360T567 246V210Q567 139 535 88T444 8T307 -20Q221
-20 161 11T69 103T37 253V392Q37 463 51 517T93 609T159 672T245 708T348 720Z" />
<glyph unicode="7" horiz-adv-x="600" d="M37 700Q48 700 68 697T113 688T160 672T197 650T211 622Q211 619 211 601T211 556T211 504T211 459T211 437Q208 437 192 437T153 437T107 437T67 437T48 437Q43 437 40 440T37 448Q37 451 37 475T37 535T37 606T37 668T37
700ZM355 0Q352 0 331 0T281 0T221 0T170 0T146 0Q141 0 138 3T135 11Q135 16 143 37T169 95T213 187T273 313Q293 353 309 383T342 436T377 480T420 523L393 471V548L429 517Q382 517 335 517T247 517T182 517H128Q112 517 98 532T73 571T54 619T41 667T37 700H552Q556
700 558 699T561 695T563 689V525Q563 524 557 507T541 463T518 405T493 342T470 287Q458 257 445 225T418 158T388 83T355 0Z" />
<glyph unicode="8" horiz-adv-x="600" d="M303 720Q386 720 441 699T523 636T550 538V530Q550 492 533 462T485 414T409 390L440 420V335L291 411Q326 423 344 442T363 486V494Q363 508 360 518T350 534Q343 541 331 544T301 548Q279 548 265 542T244 525T237
495Q237 476 241 464T257 443T288 427L419 383Q460 369 489 352T535 311T561 259T570 193V178Q570 112 541 68T451 2T298 -20Q206 -20 147 0T59 59T30 154V165Q30 204 45 234T93 285T180 313L151 286V363L346 300Q296 290 268 274T229 240T217 205Q217 185 225
173T251 156T300 151Q343 151 364 162T385 201Q385 216 381 227T366 246T337 260L198 309Q151 325 118 348T68 409T50 499V517Q50 582 78 627T162 696T303 720Z" />
<glyph unicode="9" horiz-adv-x="600" d="M294 720Q359 720 409 702T493 648T545 557T563 432V276Q563 204 543 149T485 56T390 -1T260 -20Q227 -20 194 -17T133 -8T85 6Q79 9 77 12T74 24Q74 27 74 42T74 79T74 121T74 158T74 177H94Q130 166 164 161T236 156Q279
156 304 163T342 183Q355 195 362 217T369 270V452Q369 477 363 494T348 520Q339 529 327 533T294 537Q262 537 244 521T225 477V460Q225 443 229 432T241 413Q248 406 261 403T291 399Q324 399 349 405T398 424V294H323L361 318Q341 271 305 255T220 239Q163 239
121 261T56 330T33 445V483Q33 555 66 608T157 690T294 720Z" />
<glyph unicode=":" horiz-adv-x="350" d="M283 334Q245 334 213 334T148 334T78 334Q75 334 73 335T69 338T67 345V557Q105 557 137 557T201 557T272 557Q276 557 278 556T281 552T283 546V334ZM283 -3Q245 -3 213 -3T148 -3T78 -3Q75 -3 73 -2T69 1T67 8V220Q105
220 137 220T201 220T272 220Q276 220 278 219T281 215T283 209V-3Z" />
<glyph unicode=";" horiz-adv-x="350" d="M283 334Q245 334 213 334T148 334T78 334Q75 334 73 335T69 338T67 345V557Q105 557 137 557T201 557T272 557Q276 557 278 556T281 552T283 546V334ZM423 46Q383 46 337 46T254 46Q263 93 272 141T290 239T308 336T326
432Q361 432 392 432T457 432T534 432Q538 432 540 431T542 426T542 419Q532 384 519 339T490 246T461 148T433 53Q432 49 429 48T423 46Z" />
<glyph unicode="&lt;" horiz-adv-x="600" d="M78 432Q129 452 184 473T296 517T409 560T518 602Q518 558 518 514T518 424Q518 417 516 413T505 405Q494 401 472 393T418 374T354 350T286 326T224 303L246 344V257L224 295Q259 282 302 267T386 238T460 212T505
196Q513 193 515 189T518 176Q518 132 518 88T518 -1Q448 25 378 51T237 104T95 158Q89 161 85 164T80 171T78 181Q78 244 78 306T78 432Z" />
<glyph unicode="=" horiz-adv-x="600" d="M53 521H535Q540 521 542 520T545 516T547 510Q547 466 547 426T547 341H65Q61 341 59 342T55 346T53 352Q53 397 53 437T53 521ZM53 257H535Q540 257 542 256T545 252T547 246Q547 201 547 162T547 77H65Q61 77 59 78T55
81T53 87Q53 132 53 172T53 257Z" />
<glyph unicode="&gt;" horiz-adv-x="600" d="M522 168Q471 149 416 128T304 84T191 41T82 -1Q82 44 82 88T82 176Q82 184 84 188T95 196Q106 200 128 208T182 227T246 251T314 275T376 298L354 257V343L376 306Q341 318 298 333T214 363T140 389T95 405Q87 408
85 412T82 424Q82 469 82 513T82 602Q152 575 222 549T363 497T505 443Q511 441 515 438T520 430T522 420Q522 357 522 295T522 168Z" />
<glyph unicode="?" horiz-adv-x="600" d="M393 -12Q336 -12 283 -12T173 -12Q170 -12 168 -11T164 -7T162 -1V207Q219 207 272 207T382 207Q386 207 388 206T391 202T393 196V-12ZM298 720Q365 720 412 707T487 670T529 616T542 550V501Q542 463 535 435T507 385T451
339L410 313Q397 305 390 298T380 284T377 263V259H193Q189 259 187 259T183 262T182 270V298Q182 325 188 345T212 384T261 425L307 454Q327 468 336 475T347 490T350 506Q350 510 349 514T346 520Q343 528 329 531T276 535Q231 535 185 528T97 503H77Q77 546
77 589T77 674Q77 678 78 681T81 686Q87 692 118 700T196 714T298 720Z" />
<glyph unicode="@" horiz-adv-x="1050" d="M525 750Q636 750 721 725T865 652T952 542T982 402V252Q982 212 969 180T931 124T871 88T794 75H733Q670 75 633 92T579 140T562 213Q562 236 562 255T562 295T562 340T562 394Q562 395 567 410T578 447T592 490H728Q733
490 736 487T739 479Q739 456 739 428T739 369T739 306T739 246Q739 230 747 221T773 211H777Q796 211 807 216T824 235T830 270V381Q830 411 824 438T807 489T775 532Q751 556 717 573T634 599T525 608Q413 608 346 579T250 498T220 381V189Q220 158 225 130T242
79T273 36Q309 0 371 -19T530 -38Q601 -38 654 -33T749 -18T829 5H849V-118Q849 -122 848 -124T845 -128Q838 -134 801 -147T696 -170T530 -180Q412 -180 325 -155T181 -84T96 26T68 168V399Q68 477 97 541T185 652T328 724T525 750ZM428 71Q395 71 369 84T327
126T311 203V367Q311 403 319 428T344 468T381 491T428 499Q473 499 505 480T555 424H593V320Q562 341 546 347T516 353Q509 353 504 352T495 347T490 338T488 325V247Q488 232 495 226T516 219Q524 219 534 221T558 232T593 255L597 149H559Q539 110 506 91T428
71Z" />
<glyph unicode="A" horiz-adv-x="650" d="M151 287H348Q367 287 384 287T421 287L467 296L480 213L493 130H161Q158 130 156 131T152 135T150 141L151 287ZM213 0Q166 0 119 0T25 0Q23 0 21 1T17 5T16 13Q25 53 34 99T55 196T77 300T100 407T123 511T144 610T163
700Q241 700 321 700T476 700Q480 700 482 699T485 696T488 689Q502 625 516 559T545 424T575 284T606 140Q613 105 620 71T635 0Q589 0 542 0T452 0Q445 0 442 1T436 8T431 26Q418 90 406 149T383 264T363 371T346 471T331 566L364 539H286L318 566Q311 519 303
470T286 367T265 257T240 135T213 0Z" />
<glyph unicode="B" horiz-adv-x="600" d="M368 0Q330 0 282 0T186 0T105 0T63 0Q58 0 55 3T52 11Q52 92 52 171T52 328T52 485T52 645H262L253 618Q253 575 253 540T253 464Q253 427 253 390T253 316T253 241T253 164Q262 164 270 164T287 164T304 164Q326 164
338 169T356 186T362 213V235Q362 251 356 262T337 278T303 283H187L189 374H436V344Q497 334 532 299T567 195V174Q567 118 543 79T474 20T368 0ZM17 700Q101 700 186 700T361 700Q412 700 450 688T513 655T550 604T563 539V518Q563 482 550 453T513 403T455 371T381
360Q326 360 284 360T203 360L189 351L187 419Q220 419 249 419T310 419Q328 419 340 424T358 441T365 469V487Q365 499 362 507T353 522Q346 529 335 532T307 536Q261 536 214 536T121 536T28 536Q23 536 20 539T17 547Q17 586 17 623T17 700Z" />
<glyph unicode="C" horiz-adv-x="600" d="M336 -20Q261 -20 205 -2T110 50T53 132T34 241V463Q34 520 53 567T111 648T205 701T332 720Q388 720 433 710T511 684T558 652Q561 650 562 648T563 642T564 635Q564 590 564 541T564 443Q523 443 482 443T398 443Q392
443 390 446T388 454Q388 466 388 479T388 511T388 557L415 515Q391 529 371 534T327 539Q301 539 282 529T254 499T244 447V269Q244 242 249 223T268 191Q281 178 301 173T350 167Q402 167 447 178T547 218H567Q567 196 567 175T567 133T567 91T567 47Q567 44
566 42T563 36Q549 23 517 10T438 -11T336 -20Z" />
<glyph unicode="D" horiz-adv-x="650" d="M615 243Q615 187 599 142T553 66T480 17T383 0Q352 0 318 0T249 0T180 0T115 0T59 0Q54 0 51 3T48 11Q48 90 48 168T48 326T48 483T48 641H260L252 625Q252 584 252 541T252 455Q252 420 252 386T252 318T252 250T252
181Q264 181 281 181T315 181T345 181Q371 181 385 188T405 212T412 253V452Q412 465 410 475T405 493T396 506Q392 511 386 514T371 518T351 519Q313 519 272 519T188 519T104 519T24 519Q21 519 19 520T15 524T13 530Q13 572 13 615T13 700Q56 700 102 700T194
700T287 700T376 700Q434 700 479 684T554 636T600 560T615 458V243Z" />
<glyph unicode="E" horiz-adv-x="550" d="M16 700H502Q506 700 508 699T511 695T513 689Q513 648 513 609T513 528H27Q24 528 22 529T18 533T16 539Q16 581 16 620T16 700ZM158 429H442Q446 429 448 428T452 424T453 418Q453 392 453 368T453 321T453 272H158V429ZM62
0Q59 0 57 0T54 2T52 6T51 11Q51 60 51 119T51 242T51 374T51 509T51 639H260L254 623Q254 587 254 550T254 474Q254 437 254 399T254 323T254 247T254 172H502Q507 172 510 169T513 161Q513 120 513 81T513 0H62Z" />
<glyph unicode="F" horiz-adv-x="550" d="M274 0Q227 0 179 0T82 0Q79 0 77 1T73 5T71 11Q71 91 71 169T71 324T71 480T71 638H284L274 617Q274 570 274 524T274 432Q274 376 274 322T274 212T274 98Q274 71 274 46T274 0ZM23 700H499Q503 700 505 699T508 695T510
689Q510 666 510 634T510 570T510 515H34Q31 515 29 516T25 520T23 526Q23 571 23 613T23 700ZM175 397H449Q454 397 457 394T460 386Q460 363 460 332T460 271T460 218H175V397Z" />
<glyph unicode="G" horiz-adv-x="650" d="M352 403H616Q619 403 621 402T625 398T627 392V247H363Q360 247 358 247T355 249T353 253T352 258Q352 294 352 330T352 403ZM341 720Q385 720 422 715T491 699T546 675T590 642Q594 638 595 635T596 625Q596 602 596
576T596 525T596 475Q554 475 508 475T427 475Q422 475 419 478T416 486Q416 498 416 510T416 535T416 562L444 524Q413 533 392 536T346 540Q320 540 300 534T267 517T248 487T241 445V247Q241 225 246 209T262 182Q274 171 293 166T342 160Q365 160 381 162T406
168T418 176Q418 202 418 227T418 276T418 326H606L598 306Q598 247 598 188T598 68Q598 64 597 61T591 52Q576 36 541 19T456 -9T343 -20Q267 -20 209 -2T113 50T54 132T34 239V443Q34 509 56 560T120 647T217 701T341 720Z" />
<glyph unicode="H" horiz-adv-x="650" d="M47 700Q95 700 143 700T239 700Q244 700 247 697T250 689Q250 603 250 517T250 345T250 172T250 0Q202 0 154 0T58 0Q55 0 53 1T49 5T47 11Q47 108 47 206T47 402T47 598Q47 624 47 649T47 700ZM135 439H363Q381 439
398 439T434 439L479 448L504 260H146Q144 260 142 261T139 263T136 267T135 271V439ZM603 0Q556 0 508 0T411 0Q408 0 406 1T402 5T400 11Q400 97 400 183T400 355T400 528T400 700Q448 700 496 700T592 700Q594 700 596 699T599 697T602 693T603 689Q603 616
603 543T603 396T603 250T603 103Q603 77 603 51T603 0Z" />
<glyph unicode="I" horiz-adv-x="500" d="M351 62H145L149 84Q149 118 149 153T149 222Q149 269 149 320T149 424T149 532T149 638H358L351 616Q351 580 351 542T351 467Q351 417 351 366T351 264T351 163T351 62ZM457 0H54Q52 0 50 0T47 2T44 6T43 11Q43 34 43
66T43 130T43 185H446Q449 185 451 184T455 180T457 174Q457 151 457 119T457 55T457 0ZM43 700H446Q451 700 454 697T457 689Q457 672 457 650T457 602T457 555T457 515H54Q50 515 47 518T43 526Q43 543 43 565T43 613T43 660T43 700Z" />
<glyph unicode="J" horiz-adv-x="500" d="M171 173Q194 173 209 178T235 193Q242 200 246 209T252 231T254 260Q254 298 254 335T254 409T254 485T254 564L281 495L235 543L303 515Q262 515 230 515T169 515T116 515T65 515Q62 515 60 516T56 520T54 526Q54 570
54 613T54 700Q105 700 154 700T251 700T348 700T448 700Q451 700 453 699T457 695T459 689Q459 634 459 579T459 467T459 353T459 236Q459 173 443 125T393 45T308 -3T187 -20Q147 -20 115 -15T61 -1T34 13Q32 15 32 16T31 20T30 24Q30 67 30 112T30 203H50Q72
192 90 186T128 176T171 173Z" />
<glyph unicode="K" horiz-adv-x="600" d="M374 409Q405 357 436 306T500 202Q508 189 515 184T536 178Q540 178 543 178T552 178H570Q570 156 570 128T570 72T570 26T570 4Q570 -1 567 -4T559 -7Q555 -7 546 -7T524 -7T501 -7Q459 -7 431 0T383 27T341 85Q328
108 321 122T310 148T304 174T297 208H237L374 409ZM579 700Q582 700 584 699T587 696T588 692Q588 690 586 685T575 662T543 604Q514 553 489 509T438 426T388 351T334 277T273 201T200 117V394H255Q260 422 263 439T271 471T282 502T299 542Q313 576 324 602T347
651T370 700H579ZM37 700Q85 700 130 700T224 700Q229 700 232 697T235 689Q235 603 235 517T235 345T235 172T235 0Q187 0 142 0T48 0Q43 0 40 3T37 11Q37 109 37 206T37 402T37 598Q37 623 37 648T37 700Z" />
<glyph unicode="L" horiz-adv-x="550" d="M58 0Q56 0 54 1T51 3T48 7T47 11Q47 86 47 160T47 309T47 458T47 607Q47 631 47 654T47 700Q97 700 143 700T239 700Q243 700 245 699T248 695T250 689Q250 628 250 565T250 437T250 310T250 185H352Q392 185 421 174T470
139T500 82T513 0H58ZM337 252Q370 252 395 252T445 252T502 252Q505 252 507 251T511 247T513 241Q513 206 513 177T513 121T513 64T513 0Q455 2 416 23T357 83T337 174Q337 190 337 201T337 225T337 252Z" />
<glyph unicode="M" horiz-adv-x="800" d="M243 0Q203 0 154 0T58 0Q55 0 53 1T49 5T47 11Q47 85 47 159T47 306T47 454T47 601Q47 626 47 650T47 700Q84 700 125 700T206 700T283 700Q288 700 291 699T297 694T302 684Q320 635 333 599T356 534T373 479T387 425T400
361L374 413H427L401 361Q407 397 413 425T426 480T443 537T466 606T499 700Q537 700 579 700T663 700T742 700Q746 700 748 699T751 695T753 689Q753 640 753 591T753 492T753 394T753 295T753 197T753 98Q753 82 753 66T753 33T753 0Q707 0 661 0T568 0Q565 0
563 1T559 5T557 11Q557 34 557 53T557 91T557 131Q557 151 557 171T560 213T566 262T576 319T589 387T607 471L614 444H561L589 467Q576 431 562 394T533 321T504 247T476 173T448 99Q426 99 405 99T361 99Q357 99 354 101T349 106Q335 142 322 177T295 249T267
321T240 392T212 464L245 444H185L194 467Q204 423 212 386T225 318T234 262T240 214T242 171T243 130Q243 97 243 67T243 0Z" />
<glyph unicode="N" horiz-adv-x="650" d="M233 0Q189 0 143 0T51 0Q48 0 46 1T42 5T40 11Q40 82 40 152T40 292T40 432T40 573Q40 605 40 636T40 700Q67 700 98 700T159 700T206 700Q215 700 220 699T230 693T241 674Q260 640 277 607T310 542T343 479T376 416T409
353T443 285L398 314H468L455 283Q444 326 436 360T422 420T415 469T411 513T410 558Q410 597 410 628T410 700Q455 700 505 700T599 700Q604 700 607 697T610 689Q610 615 610 541T610 393T610 245T610 97Q610 72 610 48T610 0Q583 0 553 0T496 0T448 0Q441 0
436 3T420 24Q388 81 361 131T309 228T259 323T207 424L254 393H186L198 423Q208 379 214 345T224 283T230 235T232 195T233 158Q233 120 233 79T233 0Z" />
<glyph unicode="O" horiz-adv-x="650" d="M326 720Q412 720 476 687T576 593T612 443V253Q612 168 577 107T477 13T324 -20Q238 -19 174 13T74 107T38 253V443Q38 531 74 593T175 687T326 720ZM238 254Q238 223 245 206T263 179Q273 170 289 165T327 159Q353 159
372 169T401 201T412 254V450Q412 468 410 481T402 504T389 521Q379 531 363 536T326 542Q297 542 278 531T248 500T238 450V254Z" />
<glyph unicode="P" horiz-adv-x="600" d="M252 0Q204 0 156 0T59 0Q54 0 51 3T48 11Q48 91 48 169T48 325T48 481T48 639H260L252 621Q252 578 252 536T252 450Q252 392 252 335T252 219T252 100Q252 73 252 48T252 0ZM13 700Q94 700 178 700T340 700Q385 700
421 690T485 661T530 613T556 547T565 465V405Q565 349 551 305T509 231T439 184T340 168Q305 168 269 168T196 168L185 161V340Q214 340 242 340T296 340Q314 340 326 343T345 353T355 372T358 403V463Q358 481 355 492T345 509Q338 518 327 520T299 522Q254 522
208 522T116 522T24 522Q19 522 16 525T13 533Q13 575 13 616T13 700Z" />
<glyph unicode="Q" horiz-adv-x="650" d="M490 137Q507 109 522 84T553 32Q560 21 567 16T584 11Q588 11 590 11T597 11H620Q620 -33 620 -73T620 -159Q620 -164 617 -167T609 -170Q601 -170 592 -170T573 -170Q530 -170 500 -162T449 -135T407 -82Q388 -51 371
-21T335 41L490 137ZM326 720Q412 720 476 687T576 593T612 443V253Q612 168 577 107T477 13T324 -20Q238 -19 174 13T74 107T38 253V443Q38 531 74 593T175 687T326 720ZM238 254Q238 223 245 206T263 179Q273 170 289 165T327 159Q353 159 372 169T401 201T412
254V450Q412 468 410 481T402 504T389 521Q379 531 363 536T326 542Q297 542 278 531T248 500T238 450V254Z" />
<glyph unicode="R" horiz-adv-x="600" d="M427 326Q446 293 464 263T501 200Q508 189 514 184T531 178Q534 178 537 178T543 178H571Q571 134 571 92T571 4Q571 -1 568 -4T560 -7Q548 -7 533 -7T504 -7Q462 -7 436 0T391 25T353 79Q332 121 311 162T268 245L427
326ZM13 700Q92 700 171 700T329 700Q391 700 436 686T510 645T552 576T566 481V434Q566 382 551 342T506 273T436 229T346 214Q309 214 271 214T196 214L185 207V374Q213 374 241 374T296 374Q319 374 332 379T351 398T357 434V466Q357 483 354 493T343 509Q336
517 325 519T299 522Q253 522 208 522T116 522T24 522Q19 522 16 525T13 533Q13 575 13 616T13 700ZM251 0Q202 0 155 0T59 0Q54 0 51 3T48 11Q48 91 48 169T48 325T48 481T48 639H265L251 621Q251 577 251 534T251 448Q251 390 251 333T251 219T251 100Q251 73
251 48T251 0Z" />
<glyph unicode="S" horiz-adv-x="600" d="M325 720Q412 720 468 703T541 670Q545 666 546 663T547 652Q547 627 547 600T547 546T547 492Q506 492 464 492T380 492Q374 492 372 495T370 503Q370 509 370 517T370 534T370 552T370 573L398 536Q379 544 364 546T329
548Q308 548 291 547T262 540T242 526T235 503V489Q235 477 238 468T254 453T289 441L389 417Q440 405 474 390T527 352T554 300T562 231V180Q562 114 528 70T429 3T277 -20Q222 -20 174 -13T92 8T44 33Q42 36 41 38T40 45Q40 74 40 102T40 158T40 216H60Q109 188
162 174T285 159Q338 159 355 171T373 199V219Q373 228 369 236T354 250T319 263L227 286Q168 300 132 319T77 361T52 412T46 472V519Q46 564 65 600T120 664T208 705T325 720Z" />
<glyph unicode="T" horiz-adv-x="600" d="M30 700H559Q564 700 567 697T570 689Q570 645 570 603T570 515H41Q38 515 36 516T32 520T30 526Q30 571 30 613T30 700ZM402 0Q354 0 306 0T209 0Q204 0 201 3T198 11Q198 91 198 169T198 326T198 482T198 641H410L402
624Q402 589 402 548T402 470T402 412Q402 360 402 309T402 206T402 100Q402 73 402 48T402 0Z" />
<glyph unicode="U" horiz-adv-x="650" d="M603 0Q576 0 541 0T471 0T411 0Q409 0 407 0T404 2T402 4T401 7T400 11Q400 97 400 183T400 355T400 528T400 700Q426 700 461 700T531 700T592 700Q595 700 597 699T601 695T603 689Q603 616 603 543T603 396T603 249T603
102Q603 74 603 48T603 0ZM209 -10Q167 -10 137 2T86 38T57 97T47 177Q47 247 47 317T47 457T47 601Q47 626 47 650T47 700Q95 700 143 700T239 700Q242 700 244 699T248 695T250 689Q250 611 250 533T250 376T250 221Q250 197 260 187T293 177Q318 177 341 184T384
208T421 249L420 98H380Q363 65 339 41T283 3T209 -10Z" />
<glyph unicode="V" horiz-adv-x="650" d="M215 700Q220 700 223 698T229 692T233 679Q249 591 261 522T283 392T302 271T318 138L286 164H365L332 136Q338 192 344 239T356 332T372 430T393 548T422 700Q469 700 520 700T616 700Q621 700 624 698T628 692T628
683Q618 639 606 584T580 467T552 343T524 219T498 102T475 0Q403 0 332 0T198 0Q186 0 180 5T169 30Q159 75 148 124T126 224T102 330T78 441T52 554Q47 579 42 603T31 651T20 700Q66 700 117 700T215 700Z" />
<glyph unicode="W" horiz-adv-x="950" d="M24 700Q48 700 81 700T148 700T210 700Q214 700 217 699T222 694T224 687Q228 642 233 598T242 509T251 413T260 306T267 181L242 200H312L285 182Q293 252 306 320T333 453T362 580T389 700H551Q555 700 557 699T560
695T563 689Q573 642 584 594T607 496T630 393T651 289T667 182L639 200H708L684 181Q689 258 692 317T698 423T706 514T715 601T727 700Q756 700 789 700T855 700T911 700Q915 700 918 699T923 694T924 684Q918 642 912 591T897 483T880 364T862 241T844 118T827
0Q806 0 775 0T709 0T642 0T585 0Q577 0 572 4T563 24Q553 71 541 118T518 215T497 323T482 447L500 430H447L465 447Q460 394 452 343T435 244T416 152T397 70T380 0Q340 0 294 0T206 0T138 0Q131 0 126 5T119 25Q113 66 106 117T91 228T74 350T57 479T39 607Q35
631 32 654T24 700Z" />
<glyph unicode="X" horiz-adv-x="600" d="M386 0Q382 0 379 1T372 8T365 23Q354 56 340 99T309 188T278 278L185 310Q156 375 128 440T71 570T14 700Q65 700 114 700T214 700Q219 700 222 699T228 696T232 690Q248 644 263 598T295 506T328 413L415 388Q459 291
502 194T588 0Q538 0 487 0T386 0ZM572 700Q577 700 580 698T583 691T581 681Q568 647 551 607T516 523T477 433T437 342T399 253L287 456H336Q338 486 340 511T345 560T353 606T365 652T381 700Q429 700 477 700T572 700ZM25 0Q20 0 17 3T14 10T15 20Q28 52 45
90T81 171T120 258T160 346T198 432L333 243H268Q267 213 265 187T259 138T251 93T239 48T221 0Q173 0 124 0T25 0Z" />
<glyph unicode="Y" horiz-adv-x="650" d="M438 0Q406 0 367 0T290 0T219 0Q216 0 214 1T210 5T208 11Q208 82 208 155T208 300H438Q438 268 438 235T438 167T438 101Q438 74 438 49T438 0ZM10 700Q62 700 119 700T227 700Q233 700 236 699T243 694T248 683Q261
635 271 589T290 499T306 415T317 340L287 373H361L332 341Q336 378 343 419T359 506T380 600T405 700Q456 700 512 700T615 700Q624 700 627 695T628 679Q609 632 589 584T549 486T507 387T465 288T423 192Q360 192 320 192T258 195T227 199T216 206Q203 240 184
285T144 381T99 488T53 597T10 700Z" />
<glyph unicode="Z" horiz-adv-x="600" d="M565 0H48Q43 0 40 3T37 11V190Q73 228 108 265T177 339T244 409Q259 424 274 437T304 460T337 478T372 493T413 505L376 461V536L409 516Q363 516 335 516T283 516T231 516H202Q166 516 136 530T84 570T49 628T37 700H549Q553
700 555 699T558 695T560 689V489Q531 458 500 426T437 360T373 292Q356 275 339 262T304 239T267 220T229 207T187 195L226 239V164L190 184Q237 184 287 184T383 184T464 184H554Q559 184 562 181T565 173Q565 129 565 87T565 0ZM213 473Q171 473 131 473T48
473Q45 473 43 474T39 478T37 484Q37 509 37 536T37 591T37 647T37 700Q91 700 130 679T191 620T213 532Q213 523 213 513T213 493T213 473Z" />
<glyph unicode="[" horiz-adv-x="450" d="M393 -161H89Q86 -161 84 -161T81 -159T79 -155T78 -150Q78 -52 78 46T78 242T78 438T78 635Q78 666 78 697T78 760Q92 760 105 760T132 760H382Q387 760 390 757T393 749Q393 704 393 661T393 573H281Q281 504 281 436T281
300T281 163T281 27H382Q387 27 390 24T393 16Q393 -28 393 -72T393 -161Z" />
<glyph unicode="\" horiz-adv-x="600" d="M47 750Q95 750 141 750T236 750Q239 750 241 750T245 748T248 743Q295 616 342 489T438 234T532 -21Q543 -48 553 -75T574 -130Q527 -130 481 -130T387 -130Q383 -130 379 -128T371 -119Q317 26 263 171T156 461T47 750Z" />
<glyph unicode="]" horiz-adv-x="450" d="M58 760H362Q365 760 367 760T370 758T372 754T373 749Q373 652 373 554T373 357T373 161T373 -35Q373 -66 373 -98T373 -161Q359 -161 346 -161T319 -161H69Q64 -161 61 -158T58 -150Q58 -104 58 -61T58 27H170Q170 95
170 163T170 299T170 436T170 573H69Q64 573 61 576T58 584Q58 628 58 672T58 760Z" />
<glyph unicode="^" horiz-adv-x="600" d="M168 750Q231 750 293 750T419 750Q428 750 433 746T442 733Q461 679 479 631T514 537T550 443T588 341Q544 341 500 341T410 341Q402 341 398 344T391 355Q380 386 371 413T354 467T337 520T317 579L348 564H252L292
593Q278 554 267 521T245 459T224 401T202 341H24Q21 341 19 342T15 346T13 351Q13 354 14 359T19 376Q27 393 43 433T80 527T124 638T168 750Z" />
<glyph unicode="_" horiz-adv-x="600" d="M39 -29H550Q554 -29 556 -30T559 -34T561 -40Q561 -84 561 -128T561 -217H50Q47 -217 45 -216T41 -212T39 -206Q39 -161 39 -117T39 -29Z" />
<glyph unicode="`" horiz-adv-x="350" d="M228 750Q244 707 263 656T301 555T335 462Q300 462 261 462T183 462Q175 462 170 463T162 469Q145 499 125 535T84 609T46 678T16 734Q13 739 15 744T23 750Q59 750 92 750T158 750T228 750Z" />
<glyph unicode="a" horiz-adv-x="600" d="M536 352Q536 332 536 312T536 272T536 231T536 190Q536 184 538 179T547 173Q548 172 550 172T555 171Q556 171 557 171T560 171H583Q583 131 583 91T583 11Q583 6 580 3T572 0Q567 0 545 0T505 0Q473 0 444 9T392 35T356
79T343 140Q343 173 343 206T343 272Q343 283 343 293T343 313T343 334Q343 357 335 370T308 388T254 394Q224 394 195 391T137 383T80 368H60Q60 405 60 441T60 514Q60 518 61 520T63 524Q70 531 101 539T178 554T272 560Q341 560 390 548T472 511T520 446T536
352ZM217 166Q217 149 224 142T249 134Q270 134 289 138T325 151T360 173L369 80H337Q323 52 302 32T250 1T182 -10Q136 -10 102 7T49 55T30 131V170Q30 204 40 232T71 279T121 309T189 320Q227 320 262 320T327 320T380 320Q388 320 392 310T397 279T399 223Q374
223 350 223T300 223T251 223Q242 223 236 221T225 214Q221 210 219 204T217 190V166Z" />
<glyph unicode="b" horiz-adv-x="600" d="M160 0Q150 0 131 0T92 0T58 0Q55 0 53 1T49 5T47 11Q47 85 47 159T47 307T47 455T47 603Q47 640 47 676T47 750Q65 750 89 750T141 750T193 750T236 750Q240 750 242 749T245 745T247 739Q247 660 247 582T247 426T247
270T247 113Q247 112 238 100T217 72T192 39T170 11T160 0ZM196 79L208 206Q231 183 259 171T312 158Q329 158 340 164T357 183T363 216V322Q363 339 360 350T349 368Q343 374 334 377T312 380Q299 380 285 375T256 361T229 337V464H266Q282 493 303 514T352 546T409
557Q445 557 473 546T521 512T551 457T562 384V175Q562 132 550 98T514 40T459 3T387 -10Q351 -10 324 2T276 35T241 79H196Z" />
<glyph unicode="c" horiz-adv-x="500" d="M317 563Q352 563 384 559T438 548T467 534Q469 533 469 531T470 526Q470 484 470 443T470 359H450Q419 370 390 376T322 382Q294 382 274 374T244 347T233 298V250Q233 228 239 212T259 184Q270 175 285 170T322 165Q348
165 369 167T409 175T450 187H470Q470 146 470 105T470 21Q470 19 470 17T467 13Q461 7 439 1T384 -10T317 -15Q249 -15 196 0T106 46T51 122T32 227V319Q32 389 64 444T159 531T317 563Z" />
<glyph unicode="d" horiz-adv-x="600" d="M199 557Q229 557 254 547T299 517T333 473H366V360Q350 375 329 382T288 389Q270 389 259 384T243 367T237 338V218Q237 205 240 196T249 180Q255 174 264 171T288 168Q309 168 326 171T357 183T382 202V84H333Q316 56
295 35T248 2T187 -10Q153 -10 125 2T78 36T49 91T38 163V373Q38 416 48 450T79 508T130 544T199 557ZM542 750Q546 750 548 749T551 745T553 739Q553 662 553 585T553 429T553 274T553 118Q553 89 553 60T553 0Q536 0 511 0T459 0T407 0T364 0Q361 0 359 1T355
5T353 11Q353 91 353 170T353 330T353 490T353 649Q353 677 353 702T353 750Q371 750 396 750T448 750T500 750T542 750Z" />
<glyph unicode="e" horiz-adv-x="600" d="M302 564Q383 564 440 535T527 454T557 329V235Q557 232 556 230T552 226T546 225H315Q300 225 286 225T257 225H198V321H375Q375 325 375 327T375 336Q375 355 371 368T359 389Q351 398 339 402T309 406Q277 406 260
389T242 338V217Q242 200 245 187T258 164Q269 153 290 148T353 143Q385 143 412 145T467 154T522 168H542Q542 132 542 97T542 25Q542 23 541 21T538 17Q529 8 499 0T427 -12T338 -17Q265 -17 211 -2T119 44T64 118T45 219V328Q45 380 62 423T114 498T195 547T302
564Z" />
<glyph unicode="f" horiz-adv-x="400" d="M17 503H363Q366 503 368 502T372 498T374 492Q374 454 374 410T374 327H28Q25 327 23 328T19 332T17 338Q17 376 17 420T17 503ZM279 4Q242 2 205 1T129 0Q114 0 101 2T75 7Q75 35 75 62T75 118Q75 174 75 227T75 334T75
442T75 555Q75 605 89 645T130 713T197 755T287 770Q316 770 336 767T370 759T387 750Q389 749 389 747T390 742Q390 703 390 664T390 584H370Q362 587 355 589T339 592T322 593Q313 593 305 591T290 582Q284 575 282 567T279 545Q279 494 279 440T279 329T279
216T279 107T279 4Z" />
<glyph unicode="g" horiz-adv-x="600" d="M59 84Q59 108 69 128T101 163T160 182V218L248 195Q248 183 248 173T248 152Q248 139 253 135T276 130H396Q456 130 495 113T554 63T574 -17V-62Q574 -100 563 -129T530 -177T475 -207T396 -217H147Q103 -217 73 -206T26
-173T10 -121V-107Q10 -79 21 -60T54 -30T105 -13V21L196 -7Q192 -14 190 -21T187 -36T186 -55V-80Q186 -88 188 -93T195 -100T208 -102H363Q369 -102 373 -101T380 -96Q382 -94 383 -89T385 -77V-39Q385 -26 380 -22T362 -17H202Q151 -17 120 -3T74 34T59 84ZM345
423L444 426V400Q482 392 504 372T527 319V311Q527 269 500 241T418 198T284 184Q205 184 147 204T58 264T26 359V384Q26 440 58 479T148 537T285 557Q356 557 427 557T568 557Q568 525 568 494T568 429Q568 425 566 422T557 418Q517 418 472 418T379 418T283 418Q248
418 232 408T215 376V364Q215 356 217 350T225 337Q233 329 247 325T282 321Q321 321 337 333T353 367V382Q353 390 352 396T350 409T345 423Z" />
<glyph unicode="h" horiz-adv-x="600" d="M58 0Q55 0 53 1T49 5T47 11Q47 91 47 171T47 331T47 492T47 652Q47 679 47 704T47 750Q76 750 110 750T178 750T236 750Q240 750 242 749T245 745T247 739Q247 647 247 555T247 370T247 185T247 0Q220 0 186 0T118 0T58
0ZM225 332V461H267Q281 484 298 501T334 531T374 550T419 557Q451 557 477 547T520 516T547 467T557 399Q557 347 557 297T557 198T557 98Q557 73 557 49T557 0Q509 0 463 0T368 0Q365 0 363 1T359 5T357 11Q357 67 357 123T357 236T357 349Q357 366 350 374T326
382Q315 382 303 380T278 371T252 355T225 332Z" />
<glyph unicode="i" horiz-adv-x="350" d="M95 11Q95 40 95 75T95 147T95 222T95 294T95 359H83Q78 359 73 359T61 359T50 359T38 359Q34 359 31 362T27 370Q27 414 27 458T27 547Q51 547 77 547T131 547T184 547T236 547T284 547Q287 547 289 546T293 542T295
535Q295 483 295 427T295 314T295 201T295 92Q295 77 295 62T295 31T295 0Q247 0 201 0T106 0Q102 0 99 3T95 11ZM77 800Q98 800 127 800T189 800T251 800T302 800Q307 800 310 797T313 789V627Q292 627 263 627T201 627T139 627T88 627Q83 627 80 630T77 638V800Z"
/>
<glyph unicode="j" horiz-adv-x="350" d="M284 547Q287 547 289 546T293 542T295 536Q295 484 295 435T295 337T295 240T295 139T295 30Q295 -28 283 -71T246 -143T183 -186T93 -200Q72 -200 55 -198T26 -191T9 -182Q8 -180 7 -178T6 -174Q6 -130 6 -84T6 7H26Q33
3 39 1T50 -1T61 -2Q70 -2 76 0T86 6Q90 9 91 12T94 21T95 33Q95 78 95 118T95 196T95 274T95 356H85Q82 356 77 356T67 356T56 356T46 356Q42 356 39 359T35 367Q35 412 35 457T35 547Q70 547 102 547T165 547T226 547T284 547ZM73 800Q94 800 123 800T185 800T247
800T298 800Q303 800 306 797T309 789V627Q288 627 259 627T197 627T135 627T84 627Q79 627 76 630T73 638V800Z" />
<glyph unicode="k" horiz-adv-x="600" d="M247 0Q220 0 186 0T118 0T58 0Q55 0 53 1T49 5T47 11Q47 91 47 171T47 331T47 492T47 652Q47 679 47 704T47 750Q76 750 110 750T178 750T236 750Q240 750 242 749T245 745T247 739Q247 647 247 560T247 386T247 203T247
0ZM386 0Q377 0 372 2T362 12Q360 15 357 20T351 32T343 46T333 61Q323 79 317 95T306 133T297 185H254L381 353Q417 292 453 234T525 118T596 0Q572 0 539 0T466 0T386 0ZM225 320H267Q273 348 277 365T286 395T297 419T313 451Q322 468 330 483T346 514T364 547H566Q569
547 571 546T575 543T577 539Q577 535 576 532T570 523Q525 460 491 414T430 334T380 274T334 227T285 186T225 143V320Z" />
<glyph unicode="l" horiz-adv-x="350" d="M2 750Q14 750 33 750T77 750T130 750T189 750T248 750Q251 750 253 749T257 745T259 739Q259 685 259 632T259 525T259 418T259 311T259 204Q259 199 259 197T262 191Q265 189 268 188T276 187Q286 187 297 187T319 187H327Q327
145 327 100T327 11Q327 7 326 5T322 2T316 0Q308 0 287 0T243 0T206 0Q172 0 144 9T98 37T69 83T59 146Q59 196 59 241T59 328T59 410T59 490T59 567H54Q50 567 43 567T28 567T13 567Q8 567 5 570T2 578Q2 621 2 664T2 750Z" />
<glyph unicode="m" horiz-adv-x="850" d="M803 0Q780 0 747 0T680 0T624 0Q621 0 619 1T615 5T613 11Q613 46 613 80T613 146T613 211T613 275T613 339Q613 358 607 364T583 371Q568 371 554 366T527 351T502 324L494 465H535Q547 494 565 515T608 546T665 557Q691
557 715 548T760 519T791 470T803 399Q803 374 803 341T803 268T803 186T803 99Q803 74 803 50T803 0ZM516 0Q497 0 464 0T397 0T345 0Q342 0 340 1T336 5T334 11Q334 46 334 80T334 146T334 211T334 275T334 338Q334 352 331 359T322 369T305 371Q289 371 275
366T248 351T221 323L203 465H254Q268 493 287 513T330 545T383 557Q408 557 432 549T475 523T505 475T516 400Q516 379 516 340T516 247T516 130T516 0ZM237 0Q222 0 198 0T147 0T96 0T58 0Q55 0 53 0T50 2T48 6T47 11Q47 84 47 157T47 303T47 448Q47 474 47 499T47
547Q63 547 88 547T139 547T185 547T210 547Q210 547 214 531T224 493T233 456T237 438Q237 366 237 293T237 146T237 0Z" />
<glyph unicode="n" horiz-adv-x="600" d="M557 0Q509 0 463 0T368 0Q365 0 363 1T359 5T357 11Q357 67 357 123T357 236T357 349Q357 366 350 374T326 382Q315 382 303 380T278 371T252 355T225 332V461H267Q288 493 310 514T360 546T420 557Q452 557 477 547T520
516T547 467T557 399Q557 347 557 297T557 198T557 98Q557 74 557 50T557 0ZM247 0Q220 0 186 0T118 0T58 0Q55 0 53 0T50 2T48 6T47 11Q47 66 47 120T47 230T47 339T47 449Q47 476 47 501T47 547Q76 547 110 547T178 547T236 547Q240 547 242 546T245 542T247
535Q247 447 247 358T247 179T247 0Z" />
<glyph unicode="o" horiz-adv-x="600" d="M300 564Q362 564 411 549T494 503T546 428T564 326V220Q564 145 533 92T442 11T300 -17Q238 -17 189 -2T106 44T54 119T36 220V326Q36 403 67 455T158 536T300 564ZM300 386Q278 386 264 379T243 357T236 317V229Q236
211 240 198T253 177Q261 169 272 165T300 161Q322 161 336 168T357 190T364 229V317Q364 336 360 349T348 371Q340 379 329 382T300 386Z" />
<glyph unicode="p" horiz-adv-x="600" d="M47 547Q72 547 106 547T175 547T236 547Q240 547 242 546T245 542T247 535Q247 444 247 352T247 168T247 -16T247 -200Q221 -200 187 -200T118 -200T58 -200Q55 -200 53 -199T49 -195T47 -189Q47 -110 47 -28T47 135T47
295T47 446Q47 475 47 500T47 547ZM409 557Q457 557 491 537T543 478T562 384V175Q562 130 550 96T515 38T464 2T401 -10Q373 -10 349 0T303 27T266 67H220V195Q242 176 265 167T312 158Q329 158 340 164T357 183T363 216V322Q363 339 360 350T349 368Q343 374
334 377T313 380Q299 380 285 376T258 362T232 339V464H266Q283 495 305 515T354 546T409 557Z" />
<glyph unicode="q" horiz-adv-x="600" d="M353 547Q399 547 447 547T542 547Q546 547 548 546T551 542T553 536Q553 463 553 390T553 244T553 97T553 -50Q553 -87 553 -124T553 -200Q506 -200 459 -200T364 -200Q361 -200 359 -199T355 -195T353 -189Q353 -111
353 -32T353 125T353 283T353 440Q353 458 353 475T353 511T353 547ZM370 86H334Q319 53 298 32T250 0T191 -10Q143 -10 109 11T57 71T38 163V373Q38 416 49 450T81 508T132 544T198 557Q228 557 253 548T298 520T334 473H370L369 360Q354 373 332 381T288 389Q271
389 260 384T243 368T237 338V218Q237 205 240 196T249 180Q255 174 264 171T288 168Q303 168 317 172T345 183T370 202V86Z" />
<glyph unicode="r" horiz-adv-x="450" d="M223 444H271Q281 481 296 506T333 544T387 557Q403 557 411 554T422 547Q425 545 426 543T427 535Q427 528 427 505T427 450T427 389T427 336H407Q389 341 372 344T336 347Q312 347 292 342T255 326T223 302V444ZM250
0Q224 0 189 0T119 0T58 0Q55 0 53 0T50 2T48 6T47 11Q47 29 47 65T47 149T47 249T47 353T47 449Q47 476 47 501T47 547Q76 547 111 547T181 547T239 547Q243 547 245 546T248 542T250 536Q250 482 250 429T250 322T250 215T250 108T250 0Z" />
<glyph unicode="s" horiz-adv-x="550" d="M285 156Q321 156 333 164T345 182Q345 188 342 194T328 204T298 211L225 221Q160 230 119 249T59 299T39 379Q39 423 57 456T111 514T199 551T319 563Q366 563 401 558T461 547T494 535Q498 534 499 532T501 528T502
521Q502 484 502 444T502 366H482Q452 375 424 381T365 392T297 396Q270 396 253 393T228 384T220 369Q220 361 225 355T242 346T274 340L345 331Q404 324 444 303T504 249T525 171Q525 109 497 68T411 5T268 -17Q231 -17 194 -14T125 -7T71 3T40 13Q37 16 36 18T35
24Q35 62 35 103T35 186H55Q82 177 107 171T158 162T216 158T285 156Z" />
<glyph unicode="t" horiz-adv-x="500" d="M27 547H452Q457 547 460 544T463 536Q463 513 463 481T463 416T463 360H38Q36 360 34 361T31 363T28 367T27 371Q27 394 27 426T27 491T27 547ZM463 188Q463 144 463 100T463 11Q463 7 460 4T452 0Q439 0 425 0T398 0T370
0T343 0Q285 0 241 14T166 57T120 128T105 230Q105 276 105 321T105 413T105 504T105 596Q105 622 105 648T105 700Q152 700 199 700T294 700Q297 700 299 699T303 695T305 689Q305 633 305 578T305 467T305 356T305 245Q305 229 308 218T320 200Q327 193 338 191T366
188Q379 188 392 188T419 188T445 188H463Z" />
<glyph unicode="u" horiz-adv-x="600" d="M236 547Q240 547 242 546T245 542T247 536Q247 494 247 451T247 365T247 280T247 198Q247 184 254 176T275 167Q288 167 300 169T325 177T349 192T375 215V85H334Q317 58 296 36T247 2T184 -11Q154 -11 129 -1T85 30T57
81T47 152Q47 188 47 227T47 306T47 387Q47 427 47 467T47 547Q94 547 141 547T236 547ZM542 547Q546 547 548 546T551 542T553 536Q553 463 553 391T553 245T553 98Q553 80 553 63T553 30T553 0Q526 0 491 0T422 0T364 0Q361 0 359 1T355 5T353 11Q353 100 353
189T353 368T353 547Q379 547 413 547T482 547T542 547Z" />
<glyph unicode="v" horiz-adv-x="600" d="M208 547Q213 547 216 545T221 540T225 530Q236 473 247 414T269 292T291 164H311Q317 205 324 244T338 322T352 398T365 472T379 547Q425 547 471 547T562 547Q568 547 571 545T575 538T575 528Q558 462 542 396T509
264T476 132T443 0Q376 0 311 0T191 0Q178 0 170 3T156 15T145 42Q134 87 122 135T98 233T73 336T47 441T20 547Q67 547 114 547T208 547Z" />
<glyph unicode="w" horiz-adv-x="800" d="M328 547H461Q464 547 466 546T470 542T473 536Q484 487 495 441T515 350T532 264T544 179H567Q567 221 568 264T573 353T581 447T591 547Q617 547 648 547T712 547T769 547Q772 547 774 546T777 542T778 534Q766 468
755 402T733 268T711 134T687 0Q666 0 638 0T580 0T525 0T483 0Q476 0 471 5T460 28Q454 55 449 77T439 119T431 164T422 218T411 291H390Q385 255 381 227T372 177T363 134T354 94T344 51T330 0Q302 0 266 0T193 0T131 0Q124 0 119 5T109 29Q101 78 92 128T75
230T57 335T39 441T21 547Q46 547 77 547T139 547T196 547Q200 547 202 546T207 541T209 530Q215 479 219 434T227 346T232 262T233 179H256Q260 219 267 262T284 350T305 445T328 547Z" />
<glyph unicode="x" horiz-adv-x="600" d="M22 547Q72 547 126 547T230 547Q237 547 242 545T250 536Q269 484 287 433T326 329L416 314Q460 236 501 158T585 0Q565 0 538 0T482 0T426 0T382 0Q370 0 364 4T351 26Q343 47 332 77T307 144T280 213L184 241Q143 317
103 393T22 547ZM180 319L384 168H277Q268 133 260 106T241 53T218 0H31Q25 0 22 3T19 11Q19 14 20 17T24 27Q63 100 101 173T180 319ZM569 547Q572 547 575 546T580 541Q581 539 581 535T577 525Q541 451 503 377T427 228L241 373H328Q334 401 341 427T357 482T380
547H569Z" />
<glyph unicode="y" horiz-adv-x="600" d="M564 547Q569 547 573 543T575 531Q561 461 547 394T519 260T491 123T461 -21Q450 -79 424 -119T357 -179T259 -200Q238 -200 211 -200T159 -200T115 -200T94 -200Q89 -200 86 -197T83 -189V-30H103Q136 -30 169 -30T235
-30Q259 -30 270 -21T287 13Q294 56 303 106T322 210T342 321T362 435T382 547Q399 547 422 547T470 547T520 547T564 547ZM215 547Q223 547 227 543T233 532Q242 488 249 449T263 375T275 308T286 246T297 188H367L338 40H172Q162 40 156 42T147 49T140 66Q136
83 127 120T104 209T76 319T47 435T21 547Q38 547 62 547T114 547T168 547T215 547Z" />
<glyph unicode="z" horiz-adv-x="550" d="M40 547H499Q503 547 505 546T508 542T510 536V368Q492 353 477 339T447 314T420 292T396 272T373 255Q346 236 327 227T287 211V191Q314 191 341 191T394 191H499Q504 191 507 188T510 180Q510 135 510 90T510 0H51Q48
0 46 1T42 5T40 11V172Q75 201 100 222T145 259T183 289Q207 306 225 318T269 336V356Q242 356 216 356T162 356H51Q48 356 46 357T42 361T40 367Q40 412 40 454T40 547Z" />
<glyph unicode="{" horiz-adv-x="550" d="M399 169Q399 146 395 128T385 96T373 68T363 40Q362 35 362 30T361 18Q364 12 369 10T383 8Q401 8 430 8T484 8H510Q510 -31 510 -71T510 -150Q510 -155 507 -158T499 -161H293Q253 -161 227 -146T188 -105T175 -47V-23Q175
12 181 35T196 76T211 111T218 151Q218 168 206 181T169 202T110 210H51Q46 210 43 213T40 221Q40 263 40 305T40 390H111Q146 390 169 397T205 416T218 448Q218 469 212 486T197 522T182 563T175 620V646Q175 678 188 704T227 745T293 760H499Q504 760 507 757T510
749Q510 709 510 670T510 591H491Q464 591 434 591T383 591Q375 591 370 589T361 581Q361 577 361 573T362 564Q365 549 371 536T383 507T394 474T399 431Q399 381 369 352T286 309V289Q339 277 369 246T399 169Z" />
<glyph unicode="|" horiz-adv-x="300" d="M47 760Q97 760 145 760T242 760Q247 760 250 757T253 749Q253 658 253 568T253 386T253 204T253 23T253 -159Q204 -159 156 -159T58 -159Q53 -159 50 -156T47 -148Q47 -49 47 51T47 250T47 450T47 650Q47 678 47 705T47 760Z" />
<glyph unicode="}" horiz-adv-x="550" d="M151 430Q151 453 155 471T165 503T178 531T187 559Q188 565 188 570T189 581Q187 587 182 589T167 591Q150 591 121 591T66 591H40Q40 630 40 670T40 749Q40 754 43 757T51 760H257Q297 760 323 745T362 704T375 646V622Q375
587 369 564T354 523T339 488T332 448Q332 431 344 418T381 397T440 389H499Q504 389 507 386T510 378Q510 336 510 294T510 209H439Q405 209 381 202T345 183T332 151Q332 130 338 113T353 77T368 36T375 -21V-47Q375 -78 362 -104T323 -146T257 -161H51Q46 -161
43 -158T40 -150Q40 -110 40 -71T40 8H59Q86 8 116 8T167 8Q176 8 181 10T189 18Q189 22 189 27T188 35Q185 50 179 63T167 92T156 125T151 168Q151 219 181 247T264 290V310Q211 322 181 353T151 430Z" />
<glyph unicode="~" horiz-adv-x="600" d="M399 125Q453 125 490 149T547 222T566 341V446Q566 455 563 458T551 462Q522 462 493 462T433 462V450Q433 439 433 427T433 404Q433 372 424 360T400 347Q385 347 375 356T356 380T337 411T310 442T270 466T208 475Q154
475 117 451T60 378T41 259V154Q41 145 44 142T56 138Q85 138 114 138T173 138V150Q173 161 173 173T173 196Q173 229 182 241T207 253Q222 253 232 244T250 220T269 189T296 158T337 134T399 125Z" />
<glyph unicode="&#xa1;" horiz-adv-x="350" d="M109 235H233Q236 235 238 235T241 232Q243 231 244 227T250 206T263 151T288 44V-44Q288 -72 288 -98T288 -154Q251 -154 198 -154T74 -154Q71 -154 69 -153T65 -149T63 -143V44Q71 77 78 108T94 172T109 235ZM67
549Q105 549 137 549T201 549T272 549Q276 549 278 548T281 544T283 538V326Q245 326 213 326T148 326T78 326Q75 326 73 327T69 331T67 337V549Z" />
<glyph unicode="&#xa2;" horiz-adv-x="600" d="M348 636Q388 636 422 632T482 621T523 607Q530 604 531 600T533 586Q533 567 533 539T533 482T533 426H513Q473 440 436 446T352 453Q319 453 296 445T262 418T250 372V323Q250 302 255 287T272 262Q285 251 306
246T360 241Q390 241 416 243T465 252T513 267H533Q533 241 533 209T533 149T533 106Q533 98 532 94T524 87Q510 79 483 73T421 62T346 58Q276 58 221 73T128 118T69 195T48 306V392Q48 462 81 517T182 604T348 636ZM393 424L314 446Q310 448 308 450T304 455T303
462Q302 496 302 530T302 598T303 665Q303 691 303 721T303 777Q336 777 358 777T403 777T459 777Q462 777 464 776T468 772T469 764Q461 730 454 696T439 628T424 560T408 492T393 424ZM298 262L377 240Q382 239 384 237T388 232T389 225Q389 190 389 156T389
86T389 17Q389 -9 389 -38T389 -95Q355 -95 333 -95T288 -95T233 -95Q230 -95 228 -94T224 -89T223 -82Q232 -39 242 7T262 98T282 185T298 262Z" />
<glyph unicode="&#xa3;" horiz-adv-x="600" d="M27 430H472Q476 430 478 429T481 425T483 419Q483 398 483 374T483 325T483 279H38Q35 279 33 280T29 284T27 290Q27 311 27 335T27 384T27 430ZM390 529Q365 529 349 526T323 513Q315 506 312 495T308 468Q308
452 308 432T308 390T308 346T308 305Q308 280 305 260T289 218T250 170L269 217V141L239 168Q268 171 292 173T340 176T384 178T429 178Q454 178 474 178T513 178T550 178H570Q570 137 570 93T570 11Q570 6 567 3T559 0Q542 0 519 0T467 0T409 0T349 0T292 0T244
0H232Q207 0 174 0T107 0T44 0Q39 0 36 3T33 11Q33 23 33 44T33 90T33 137T33 172H55Q73 172 85 178T105 198T112 236Q112 269 112 303T112 372T112 438T112 496V519Q112 586 142 630T228 697T365 720Q438 720 481 713T543 698Q549 696 550 694T551 687Q551 668
551 638T551 573T551 509H531Q499 518 465 523T390 529Z" />
<glyph unicode="&#xa4;" horiz-adv-x="600" d="M265 431Q245 411 221 387T174 340Q172 338 170 338T166 337T162 340Q139 363 113 389T63 439Q82 458 106 482T154 530Q156 532 157 532T160 533Q163 533 166 530Q189 506 215 480T265 431ZM333 431Q356 454 382
480T432 530Q435 533 438 533Q440 533 441 533T444 530Q468 507 490 485T535 439Q512 416 486 390T436 340Q434 338 432 338T428 337T424 340Q420 344 407 357T378 386T349 415T333 431ZM333 167Q353 187 378 212T424 258Q427 261 430 261T436 258Q459 235 485
209T535 159Q517 141 493 117T444 68Q443 67 442 66T438 65Q435 65 432 68Q409 92 383 118T333 167ZM265 167Q242 144 216 118T166 68Q163 65 160 65Q159 65 158 66T154 68Q131 92 109 114T63 159Q86 182 112 208T162 258Q164 260 166 260T170 261T174 258Q178
254 191 241T220 212T249 183T265 167ZM125 317Q125 365 146 401T207 457T300 477Q353 477 392 457T453 401T475 316V285Q475 238 454 202T393 146T300 126Q247 126 208 146T147 201T125 285V317ZM248 293Q248 280 251 271T262 256Q268 252 277 249T300 246Q326
246 339 258T352 293V311Q352 323 349 331T339 345Q333 351 324 353T300 356Q274 356 261 345T248 311V293Z" />
<glyph unicode="&#xa5;" horiz-adv-x="600" d="M10 489H210V345H21Q18 345 16 346T12 350T10 356Q10 374 10 398T10 447T10 489ZM390 489H579Q584 489 587 486T590 478Q590 460 590 436T590 387T590 345H390V489ZM590 109H21Q16 109 13 112T10 120Q10 137 10 163T10
214T10 253H579Q583 253 585 252T588 248T590 242Q590 224 590 196T590 143T590 109ZM402 249Q402 223 402 196T402 144T402 101Q402 77 402 52T402 0Q392 0 369 0T316 0T259 0T209 0Q206 0 204 1T200 5T198 11Q198 32 198 60T198 119T198 183T198 248Q184 282
171 315T141 386T106 469T63 570T8 700Q31 700 66 700T141 700T215 700Q220 700 223 699T228 695T231 688Q245 634 255 587T272 498T284 417T294 340L264 373H338L309 341Q313 380 318 421T332 505T350 597T374 700Q424 700 473 700T572 700Q580 700 583 695T584
682Q562 628 540 574T494 466T448 357T402 249Z" />
<glyph unicode="&#xa6;" horiz-adv-x="350" d="M72 760Q120 760 168 760T267 760Q269 760 271 760T275 757Q277 756 277 754T278 749V369Q228 369 180 369T83 369Q78 369 75 372T72 380V661Q72 686 72 710T72 760ZM72 231Q120 231 168 231T267 231Q272 231 275
228T278 220V-160Q228 -160 180 -160T83 -160Q80 -160 78 -159T74 -155T72 -149V231Z" />
<glyph unicode="&#xa7;" horiz-adv-x="600" d="M316 720Q357 720 393 717T460 707T512 693T541 676Q544 674 545 672T546 667T547 658Q547 617 547 576T547 493Q505 493 464 493T380 493Q374 493 372 496T369 504Q369 513 369 521T369 539T369 556T369 574L399
536Q367 547 329 547Q305 547 288 545T259 537T241 524T235 505V498Q235 487 239 480T256 468T288 457L385 434Q452 418 490 400T545 356T562 294V281Q562 256 551 234T519 198T471 180V131H356Q362 144 366 156T371 180T373 204V245Q373 256 369 263T354 277T321
289L232 310Q162 327 122 352T64 412T46 488V519Q46 563 65 599T121 663T207 705T316 720ZM285 -34Q332 -34 352 -24T373 2V5Q373 14 369 21T353 33T321 45L232 66Q165 82 124 101T65 147T46 210V219Q46 261 73 288T139 322V363H251Q245 356 242 346T237 323T235
298V261Q235 248 239 239T254 225T288 213L385 190Q450 175 488 151T544 91T562 6V-26Q562 -70 543 -105T487 -165T397 -203T277 -217Q238 -217 201 -213T133 -202T78 -184T43 -162Q42 -160 41 -158T40 -154Q40 -110 40 -66T40 23H60Q110 -5 165 -19T285 -34Z"
/>
<glyph unicode="&#xa8;" horiz-adv-x="600" d="M99 768Q135 768 178 768T257 768Q261 768 263 767T266 763T268 757V611Q232 611 189 611T110 611Q107 611 105 612T101 616T99 622V768ZM332 768Q368 768 411 768T490 768Q494 768 496 767T499 763T501 757V611Q465
611 422 611T343 611Q340 611 338 612T334 616T332 622V768Z" />
<glyph unicode="&#xa9;" horiz-adv-x="600" d="M300 715Q387 715 451 683T551 587T587 429V272Q587 178 550 114T448 18T300 -15Q213 -15 149 17T49 113T13 271V428Q13 523 50 586T152 682T300 715ZM300 633Q237 633 192 610T123 541T99 426V275Q99 221 114 182T157
115Q183 91 219 79T300 67Q364 67 408 90T477 159T501 274V425Q501 477 487 516T447 580Q422 607 385 620T300 633ZM308 566Q344 566 371 554T416 522Q419 519 420 517T421 511Q421 485 421 459T421 406Q400 406 380 406T338 406Q332 406 330 409T327 417Q327 437
327 458T327 500L352 459Q346 466 337 469T315 472Q298 472 289 466T275 446T271 415V290Q271 274 273 263T282 244Q288 238 297 235T321 232Q349 232 369 242T409 273H421Q421 252 421 231T421 188Q421 184 420 182T417 177Q401 157 371 146T305 134Q258 134 227
151T182 199T167 273V427Q167 493 204 529T308 566Z" />
<glyph unicode="&#xaa;" horiz-adv-x="600" d="M199 281Q170 281 147 291T108 321T84 367T76 427V608Q76 656 91 689T135 741T205 760Q240 760 269 742T315 692H350L345 595Q332 605 316 611T282 617Q269 617 260 612T245 595T240 566V472Q240 461 242 453T250
440Q256 435 263 433T282 430Q294 430 305 433T326 444T344 460L362 366H325Q303 323 271 302T199 281ZM540 432Q540 398 540 365T540 298Q540 293 537 290T529 287Q514 287 500 287T470 287Q430 287 400 304T352 350T335 414Q335 446 335 481T335 551T335 621Q335
643 335 665T335 708T335 751Q375 751 414 751T493 751Q498 751 501 748T504 740Q504 691 504 642T504 543T504 444Q504 438 506 435T515 432Q517 432 520 432T524 432H540Z" />
<glyph unicode="&#xab;" horiz-adv-x="600" d="M342 99V78Q302 78 263 78T184 78Q174 78 169 80T158 90Q148 103 135 121T107 158T76 198T47 236T23 268Q19 274 18 277T16 286Q16 296 16 305T16 325Q34 349 53 373T92 423T128 470T160 512Q165 518 171 520T186
522Q225 522 264 522T342 522V501Q313 465 286 432T233 366T180 301Q206 269 231 237T284 171T342 99ZM583 99V78Q543 78 504 78T424 78Q414 78 409 80T398 90Q389 103 376 121T347 158T317 198T288 236T264 268Q260 274 259 277T257 286Q257 296 257 305T257 325Q275
349 294 373T332 423T368 470T400 512Q405 518 411 520T426 522Q465 522 504 522T583 522V501Q554 465 527 432T473 366T421 301Q447 269 472 237T524 171T583 99Z" />
<glyph unicode="&#xac;" horiz-adv-x="600" d="M60 457H529Q533 457 535 456T538 452T540 446Q540 365 540 284T540 122Q495 122 457 122T372 122Q369 122 367 123T363 127T361 133Q361 184 361 236T361 339L403 279H71Q68 279 66 280T62 284T60 290Q60 332 60
374T60 457Z" />
<glyph unicode="&#xad;" horiz-adv-x="600" d="M46 394H393Q397 394 399 393T402 389T404 383Q404 338 404 295T404 206H57Q54 206 52 206T49 208T47 212T46 217Q46 262 46 305T46 394Z" />
<glyph unicode="&#xae;" horiz-adv-x="600" d="M300 760Q378 760 430 746T514 705T559 637T573 543V417Q573 364 560 324T515 256T431 214T300 200Q199 200 139 224T53 297T27 417V543Q27 596 41 636T87 704T172 746T300 760ZM300 688Q239 688 201 678T142 651T114
608T106 551V411Q106 380 113 355T142 310Q163 292 200 282T300 272Q363 272 401 282T460 309T487 352T494 409V549Q494 579 489 603T465 645Q446 666 407 677T300 688ZM228 608H277Q277 597 277 586T277 563Q277 523 277 483T277 401Q277 382 277 364T277 327Q256
327 236 327T196 327Q191 327 188 330T185 338Q185 383 185 428T185 518T185 608H228ZM324 635Q360 635 384 625T419 594T431 545V507Q431 489 426 473T409 445T381 427T344 420Q327 420 309 420T274 420Q266 420 258 420T239 420V458V494H316Q328 494 335 501T343
518V535Q343 542 342 546T336 553Q330 559 316 559Q293 559 269 559T222 559T176 559Q171 559 168 562T165 570Q165 586 165 602T165 635Q201 635 243 635T324 635ZM369 477Q375 461 381 445T394 413Q397 406 400 404T413 401Q418 401 421 401T429 401H432Q432
385 432 366T432 335Q432 330 430 327T421 324H402Q369 324 351 334T322 372Q315 389 309 406T296 440L369 477Z" />
<glyph unicode="&#xaf;" horiz-adv-x="600" d="M120 783H469Q474 783 477 780T480 772Q480 753 480 728T480 678T480 633H131Q128 633 126 634T122 638T120 644Q120 664 120 689T120 739T120 783Z" />
<glyph unicode="&#xb0;" horiz-adv-x="600" d="M300 710Q353 710 392 692T452 639T473 559V511Q473 465 452 431T392 378T300 359Q247 359 208 377T148 430T127 511V559Q127 605 148 639T208 691T300 710ZM300 476Q326 476 340 487T355 520V549Q355 568 344 578Q337
586 326 589T300 593Q274 593 260 582T245 549V520Q245 502 256 490Q263 483 274 480T300 476Z" />
<glyph unicode="&#xb1;" horiz-adv-x="600" d="M208 607Q259 607 299 607T381 607Q386 607 389 604T392 596Q392 549 392 502T392 408T392 313T392 218Q345 218 306 218T219 218Q214 218 211 221T208 229Q208 278 208 327T208 425T208 523Q208 546 208 568T208
607ZM60 497H529Q533 497 535 496T538 492T540 486Q540 443 540 408T540 328H71Q66 328 63 331T60 339Q60 383 60 418T60 497ZM60 182H529Q533 182 535 181T538 177T540 171Q540 127 540 91T540 10H71Q68 10 66 11T62 14T60 21Q60 66 60 102T60 182Z" />
<glyph unicode="&#xb2;" horiz-adv-x="400" d="M354 358Q351 358 330 358T275 358T206 358T137 358T83 358T58 358Q55 358 52 359T48 363T46 369V471Q46 505 57 532T92 580T154 614Q180 623 195 630T217 644T223 660Q223 669 222 673T217 681Q213 685 202 687T164
690Q139 690 115 687T71 677H57Q57 681 57 697T57 732T57 767T57 787Q57 790 58 793T67 798Q82 804 115 808T188 812Q244 812 279 797T332 753T349 686V680Q349 640 336 613T297 567T230 534Q200 524 185 515T164 493T157 455L145 484L191 459H150Q173 472 195
477T260 483H342Q347 483 350 480T354 472Q354 468 354 452T354 415T354 379T354 358Z" />
<glyph unicode="&#xb3;" horiz-adv-x="400" d="M347 695Q347 656 318 625T224 586L266 610V563L223 587Q269 584 297 573T338 539T352 480V471Q352 428 330 401T270 361T184 348Q136 348 106 353T59 367Q55 370 54 373T52 382Q52 386 52 400T52 433T52 466T52
485H64Q88 477 112 474T169 470Q203 470 217 478T231 502Q231 514 223 521T191 531T122 535Q116 535 112 538T108 547Q108 552 108 570T108 605T108 628Q158 628 183 631T216 641T225 660Q225 676 212 683T162 690Q134 690 111 686T70 673H58Q58 677 58 693T58
729T58 765T58 785Q58 788 59 791T67 797Q81 802 108 807T177 812Q233 812 270 801T327 765T347 703V695Z" />
<glyph unicode="&#xb4;" horiz-adv-x="600" d="M321 805Q374 805 422 805T522 805Q528 805 531 800T529 789Q504 761 481 736T434 684T380 624Q378 621 373 619T361 617Q325 617 287 617T215 617Q233 648 250 679T285 741T321 805Z" />
<glyph unicode="&#xb5;" horiz-adv-x="600" d="M47 137H144L191 3L177 -16Q216 -75 233 -104T250 -135Q250 -157 250 -167T250 -200Q219 -200 165 -200T58 -200Q55 -200 53 -199T49 -196T47 -189Q47 -133 47 -80T47 27T47 137ZM239 547Q243 547 245 546T248 542T250
536V393Q250 364 250 334T250 273T250 213Q250 198 257 191T279 183Q292 183 304 185T329 194T356 210T389 236V92H346Q331 53 312 31T269 -1T221 -11Q184 -11 152 -1T97 27T60 71T47 132Q47 204 47 276T47 419Q47 441 47 462T47 504T47 547Q95 547 143 547T239
547ZM361 547Q409 547 457 547T553 547Q553 456 553 366T553 184Q553 180 554 178T558 172Q562 169 568 169Q571 169 574 169T581 169H587Q587 128 587 87T587 4Q587 1 586 -1T582 -5T576 -7H511Q461 -7 425 13T369 67T350 144Q350 242 350 340T350 536Q350 539
351 541T355 545T361 547Z" />
<glyph unicode="&#xb6;" horiz-adv-x="600" d="M329 530Q309 530 294 523T271 502T262 465V409Q262 391 269 380T289 363T317 357H342V218Q316 218 292 218T243 218H199Q149 218 111 241T52 306T31 402V488Q31 560 60 607T140 677T258 700H568Q570 700 572 700T576
697Q578 696 578 694T579 689Q579 650 579 627T579 582T579 530H568Q538 530 496 530T411 530T329 530ZM287 630H352Q356 630 358 629T361 625T363 619Q363 523 363 427T363 235T363 42T363 -150Q327 -150 293 -150T221 -150Q216 -150 213 -147T210 -139Q210 -75
210 -11T210 117T210 245T210 374T210 502T210 630H287ZM475 630H522Q526 630 528 629T531 625T533 619Q533 537 533 455T533 290T533 125T533 -40Q533 -70 533 -98T533 -150Q509 -150 486 -150T437 -150Q432 -150 429 -147T426 -139Q426 -62 426 15T426 169T426
322T426 476T426 630H475Z" />
<glyph unicode="&#xb7;" horiz-adv-x="350" d="M283 206Q245 206 213 206T148 206T78 206Q75 206 73 207T69 210T67 217V429Q105 429 137 429T201 429T272 429Q276 429 278 428T281 424T283 418V206Z" />
<glyph unicode="&#xb8;" horiz-adv-x="600" d="M336 79Q334 69 332 57T328 32T325 7T321 -16V-27Q374 -34 400 -61T426 -138Q426 -199 386 -226T275 -253Q228 -253 202 -249T166 -236T156 -216Q156 -195 156 -180T156 -150T156 -115H168Q183 -121 198 -124T232
-127Q254 -127 266 -121T279 -96Q279 -79 261 -70T209 -53Q202 -51 201 -45T201 -34Q205 -24 210 -11T220 18T230 45T238 65Q241 70 247 73T273 77T336 79Z" />
<glyph unicode="&#xb9;" horiz-adv-x="400" d="M55 483H335Q340 483 343 480T346 472Q346 468 346 452T346 415T346 379T346 358H66Q61 358 58 361T55 369Q55 375 55 389T55 420T55 455T55 483ZM273 397H140L147 415Q147 420 147 431T147 452T147 467Q147 469
147 486T147 530T147 585T147 641T147 688L164 664H113L140 690Q133 662 127 644T112 613T91 587Q81 578 78 576T70 574Q65 574 63 576T61 583V745Q70 752 79 758T99 772Q110 780 120 787T140 802Q145 802 162 802T202 802T241 802T262 802Q267 802 270 799T273
791Q273 789 273 760T273 687T273 594T273 501T273 429T273 397Z" />
<glyph unicode="&#xba;" horiz-adv-x="600" d="M301 761Q371 761 419 737T494 667T521 553V477Q521 415 493 369T414 297T299 272Q230 272 181 296T105 366T79 480V556Q79 619 107 664T186 735T301 761ZM301 609Q283 609 270 603T252 584T246 552V482Q246 467
249 456T258 437Q265 430 275 427T299 423Q317 423 329 430T348 450T354 481V551Q354 566 351 577T342 595Q336 602 326 605T301 609Z" />
<glyph unicode="&#xbb;" horiz-adv-x="600" d="M258 502V523Q298 523 337 523T417 523Q427 523 432 521T443 511Q452 497 465 480T494 443T524 403T553 365T577 333Q581 328 582 324T584 314Q584 304 584 295T584 276Q566 252 547 227T509 178T473 131T441 89Q436
82 430 81T415 79Q376 79 337 79T258 79V99Q288 136 315 169T368 235T420 300Q395 332 370 364T317 430T258 502ZM17 502V523Q57 523 96 523T176 523Q186 523 191 521T202 511Q211 497 224 480T253 443T284 403T312 365T336 333Q341 328 342 324T344 314Q344 304
344 295T344 276Q325 252 306 227T268 178T232 131T200 89Q195 82 189 81T174 79Q135 79 96 79T17 79V99Q48 136 75 169T127 235T180 300Q154 332 129 364T76 430T17 502Z" />
<glyph unicode="&#xbc;" horiz-adv-x="800" d="M416 406Q421 425 427 449T442 501T458 558T475 615T489 667T500 710Q520 710 543 710T591 710T637 710T674 710Q680 710 681 707T680 697Q673 679 663 657T642 608T620 555T597 503T577 454T559 413Q557 409 555
408T548 406Q536 406 519 406T483 406T446 406T416 406ZM384 295Q379 276 373 252T358 199T342 142T325 86T311 34T300 -10Q280 -10 257 -10T209 -10T163 -10T126 -10Q120 -10 119 -7T120 3Q127 21 137 44T158 93T180 145T203 198T223 246T241 287Q243 292 245
293T252 295Q264 295 281 295T317 295T354 295T384 295ZM727 -102Q723 -102 708 -102T675 -102T641 -102T622 -102Q617 -102 614 -100T611 -91V96Q611 98 615 111T626 141T638 172T645 190H716Q722 190 724 187T727 179V-51Q727 -58 727 -76T727 -102ZM777 -15H435Q430
-15 427 -12T424 -4V77Q424 78 431 96T450 142T475 202T501 263T521 311T531 334Q533 339 537 340T545 342Q549 342 568 342T610 342T652 342T675 342V330Q673 326 663 308T637 264T605 209T573 153T545 107T529 80L542 128V71L527 81Q546 90 565 95T606 104T657
108H766Q771 108 774 105T777 97Q777 93 777 77T777 41T777 5T777 -15ZM55 483H335Q340 483 343 480T346 472Q346 468 346 452T346 415T346 379T346 358H66Q61 358 58 361T55 369Q55 375 55 389T55 420T55 455T55 483ZM273 397H140L147 415Q147 420 147 431T147
452T147 467Q147 469 147 486T147 530T147 585T147 641T147 688L164 664H113L140 690Q133 662 127 644T112 613T91 587Q81 578 78 576T70 574Q65 574 63 576T61 583V745Q70 752 79 758T99 772Q110 780 120 787T140 802Q145 802 162 802T202 802T241 802T262 802Q267
802 270 799T273 791Q273 789 273 760T273 687T273 594T273 501T273 429T273 397Z" />
<glyph unicode="&#xbd;" horiz-adv-x="600" d="M359 396Q361 415 365 440T373 494T383 553T392 612T401 666T407 710Q426 710 448 710T493 710T536 710T570 710Q576 710 578 707T578 697Q573 679 565 656T548 605T529 550T510 495T492 445T478 403Q476 399 474
398T467 396Q453 396 433 396T394 396T359 396ZM241 305Q239 287 235 261T227 207T217 148T208 89T199 35T193 -9Q174 -9 152 -9T108 -9T66 -9T30 -9Q24 -9 22 -6T22 4Q27 22 35 45T52 96T71 151T90 206T108 256T122 298Q124 303 126 304T133 305Q149 305 168 305T206
305T241 305ZM584 -102Q581 -102 559 -102T505 -102T436 -102T367 -102T312 -102T287 -102Q284 -102 282 -101T278 -97T276 -91V11Q276 45 286 72T321 120T383 154Q410 163 425 170T446 184T453 200Q453 209 452 213T447 221Q443 225 431 227T394 230Q369 230 345
227T300 217H287Q287 221 287 237T287 272T287 307T287 327Q287 330 288 333T297 338Q312 344 345 348T417 352Q473 352 509 337T562 293T579 226V220Q579 180 566 153T527 107T459 74Q429 64 414 55T393 33T387 -5L375 24L420 -1H380Q402 12 424 17T490 23H572Q577
23 580 20T584 12Q584 8 584 -8T584 -45T584 -81T584 -102ZM22 483H301Q306 483 309 480T312 472Q312 468 312 452T312 415T312 379T312 358H33Q28 358 25 361T22 369Q22 375 22 389T22 420T22 455T22 483ZM240 397H106L114 415Q114 420 114 431T114 452T114 467Q114
469 114 486T114 530T114 585T114 641T114 688L131 664H80L107 690Q99 662 93 644T78 613T57 587Q48 578 44 576T36 574Q32 574 30 576T28 583V745Q36 752 46 758T66 772Q77 780 87 787T107 802Q111 802 128 802T168 802T207 802T229 802Q234 802 237 799T240 791Q240
789 240 760T240 687T240 594T240 501T240 429T240 397Z" />
<glyph unicode="&#xbe;" horiz-adv-x="800" d="M416 406Q421 425 427 449T442 501T458 558T475 615T489 667T500 710Q520 710 543 710T591 710T637 710T674 710Q680 710 681 707T680 697Q673 679 663 657T642 608T620 555T597 503T577 454T559 413Q557 409 555
408T548 406Q536 406 519 406T483 406T446 406T416 406ZM384 295Q379 276 373 252T358 199T342 142T325 86T311 34T300 -10Q280 -10 257 -10T209 -10T163 -10T126 -10Q120 -10 119 -7T120 3Q127 21 137 44T158 93T180 145T203 198T223 246T241 287Q243 292 245
293T252 295Q264 295 281 295T317 295T354 295T384 295ZM727 -102Q723 -102 708 -102T675 -102T641 -102T622 -102Q617 -102 614 -100T611 -91V96Q611 98 615 111T626 141T638 172T645 190H716Q722 190 724 187T727 179V-51Q727 -58 727 -76T727 -102ZM777 -15H435Q430
-15 427 -12T424 -4V77Q424 78 431 96T450 142T475 202T501 263T521 311T531 334Q533 339 537 340T545 342Q549 342 568 342T610 342T652 342T675 342V330Q673 326 663 308T637 264T605 209T573 153T545 107T529 80L542 128V71L527 81Q546 90 565 95T606 104T657
108H766Q771 108 774 105T777 97Q777 93 777 77T777 41T777 5T777 -15ZM347 695Q347 656 318 625T224 586L266 610V563L223 587Q269 584 297 573T338 539T352 480V471Q352 428 330 401T270 361T184 348Q136 348 106 353T59 367Q55 370 54 373T52 382Q52 386 52
400T52 433T52 466T52 485H64Q88 477 112 474T169 470Q203 470 217 478T231 502Q231 514 223 521T191 531T122 535Q116 535 112 538T108 547Q108 552 108 570T108 605T108 628Q158 628 183 631T216 641T225 660Q225 676 212 683T162 690Q134 690 111 686T70 673H58Q58
677 58 693T58 729T58 765T58 785Q58 788 59 791T67 797Q81 802 108 807T177 812Q233 812 270 801T327 765T347 703V695Z" />
<glyph unicode="&#xbf;" horiz-adv-x="600" d="M207 558Q264 558 317 558T427 558Q431 558 433 557T436 553T438 547V339Q381 339 328 339T218 339Q215 339 213 340T209 344T207 350V558ZM302 -174Q235 -174 188 -161T113 -124T71 -70T58 -4V45Q58 83 66 111T93
162T149 207L190 233Q204 242 211 248T220 263T223 283V287H407Q411 287 413 287T417 284T418 276V248Q418 222 412 201T388 162T339 121L293 92Q273 79 264 71T253 57T250 40Q250 37 251 33T254 26Q257 18 271 15T324 11Q370 11 416 19T503 43H523Q523 1 523 -42T523
-128Q523 -132 522 -135T519 -140Q513 -146 482 -154T404 -168T302 -174Z" />
<glyph unicode="&#xc0;" horiz-adv-x="650" d="M151 287H348Q367 287 384 287T421 287L467 296L480 213L493 130H161Q158 130 156 131T152 135T150 141L151 287ZM213 0Q166 0 119 0T25 0Q23 0 21 1T17 5T16 13Q25 53 34 99T55 196T77 300T100 407T123 511T144
610T163 700Q241 700 321 700T476 700Q480 700 482 699T485 696T488 689Q502 625 516 559T545 424T575 284T606 140Q613 105 620 71T635 0Q589 0 542 0T452 0Q445 0 442 1T436 8T431 26Q418 90 406 149T383 264T363 371T346 471T331 566L364 539H286L318 566Q311
519 303 470T286 367T265 257T240 135T213 0ZM305 938Q323 910 340 883T374 830T409 775Q387 775 364 775T316 775T263 775Q255 775 251 776T243 782Q219 805 201 822T167 855T135 887T98 922Q94 927 96 932T104 938Q140 938 171 938T234 938T305 938Z" />
<glyph unicode="&#xc1;" horiz-adv-x="650" d="M151 287H348Q367 287 384 287T421 287L467 296L480 213L493 130H161Q158 130 156 131T152 135T150 141L151 287ZM213 0Q166 0 119 0T25 0Q23 0 21 1T17 5T16 13Q25 53 34 99T55 196T77 300T100 407T123 511T144
610T163 700Q241 700 321 700T476 700Q480 700 482 699T485 696T488 689Q502 625 516 559T545 424T575 284T606 140Q613 105 620 71T635 0Q589 0 542 0T452 0Q445 0 442 1T436 8T431 26Q418 90 406 149T383 264T363 371T346 471T331 566L364 539H286L318 566Q311
519 303 470T286 367T265 257T240 135T213 0ZM345 938Q384 938 416 938T479 938T546 938Q552 938 554 932T552 921Q532 902 516 887T484 856T450 823T408 782Q405 778 400 777T387 775Q360 775 335 775T287 775T241 775Q259 803 276 829T310 883T345 938Z" />
<glyph unicode="&#xc2;" horiz-adv-x="650" d="M151 287H348Q367 287 384 287T421 287L467 296L480 213L493 130H161Q158 130 156 131T152 135T150 141L151 287ZM213 0Q166 0 119 0T25 0Q23 0 21 1T17 5T16 13Q25 53 34 99T55 196T77 300T100 407T123 511T144
610T163 700Q241 700 321 700T476 700Q480 700 482 699T485 696T488 689Q502 625 516 559T545 424T575 284T606 140Q613 105 620 71T635 0Q589 0 542 0T452 0Q445 0 442 1T436 8T431 26Q418 90 406 149T383 264T363 371T346 471T331 566L364 539H286L318 566Q311
519 303 470T286 367T265 257T240 135T213 0ZM246 947Q264 947 290 947T343 947T389 947Q397 947 402 944T420 928Q427 921 443 904T481 864T525 818T566 775Q531 775 493 775T420 775Q409 775 404 777T392 784Q381 793 363 811T310 865L361 842Q344 842 327 842T291
842L341 865Q309 831 288 811T247 775H106Q102 775 100 776T96 779T95 783Q95 787 98 791T114 808Q126 821 143 839T180 878T217 917T246 947Z" />
<glyph unicode="&#xc3;" horiz-adv-x="650" d="M151 287H348Q367 287 384 287T421 287L467 296L480 213L493 130H161Q158 130 156 131T152 135T150 141L151 287ZM213 0Q166 0 119 0T25 0Q23 0 21 1T17 5T16 13Q25 53 34 99T55 196T77 300T100 407T123 511T144
610T163 700Q241 700 321 700T476 700Q480 700 482 699T485 696T488 689Q502 625 516 559T545 424T575 284T606 140Q613 105 620 71T635 0Q589 0 542 0T452 0Q445 0 442 1T436 8T431 26Q418 90 406 149T383 264T363 371T346 471T331 566L364 539H286L318 566Q311
519 303 470T286 367T265 257T240 135T213 0ZM435 902Q458 902 478 909T514 933H532Q532 907 532 879T532 826Q532 817 531 813T525 803Q509 786 486 776T429 766Q395 766 368 773T316 789T267 805T215 812Q192 812 172 805T136 781H118Q118 807 118 835T118 888Q118
896 119 900T125 911Q141 928 164 938T221 948Q255 948 282 941T334 925T383 909T435 902Z" />
<glyph unicode="&#xc4;" horiz-adv-x="650" d="M151 287H348Q367 287 384 287T421 287L467 296L480 213L493 130H161Q158 130 156 131T152 135T150 141L151 287ZM213 0Q166 0 119 0T25 0Q23 0 21 1T17 5T16 13Q25 53 34 99T55 196T77 300T100 407T123 511T144
610T163 700Q241 700 321 700T476 700Q480 700 482 699T485 696T488 689Q502 625 516 559T545 424T575 284T606 140Q613 105 620 71T635 0Q589 0 542 0T452 0Q445 0 442 1T436 8T431 26Q418 90 406 149T383 264T363 371T346 471T331 566L364 539H286L318 566Q311
519 303 470T286 367T265 257T240 135T213 0ZM130 933Q168 933 206 933T282 933Q286 933 288 932T291 928T293 922V779Q256 779 218 779T141 779Q138 779 136 780T132 784T130 790V933ZM357 933Q394 933 432 933T509 933Q513 933 515 932T518 928T520 922V779Q482
779 444 779T368 779Q365 779 363 780T359 784T357 790V933Z" />
<glyph unicode="&#xc5;" horiz-adv-x="650" d="M151 287H348Q367 287 384 287T421 287L467 296L480 213L493 130H161Q158 130 156 131T152 135T150 141L151 287ZM213 0Q166 0 119 0T25 0Q23 0 21 1T17 5T16 13Q25 53 34 99T55 196T77 300T100 407T123 511T144
610T163 700Q241 700 321 700T476 700Q480 700 482 699T485 696T488 689Q502 625 516 559T545 424T575 284T606 140Q613 105 620 71T635 0Q589 0 542 0T452 0Q445 0 442 1T436 8T431 26Q418 90 406 149T383 264T363 371T346 471T331 566L364 539H286L318 566Q311
519 303 470T286 367T265 257T240 135T213 0ZM325 904Q404 904 448 889T512 846T531 780V734Q531 699 512 673T448 631T325 616Q247 616 202 631T138 672T119 734V780Q119 818 138 845T202 888T325 904ZM325 817Q293 817 276 804T258 767V753Q258 741 262 732T275
716Q284 709 296 706T325 703Q357 703 374 716T392 753V767Q392 778 389 787T377 803Q369 810 356 813T325 817Z" />
<glyph unicode="&#xc6;" horiz-adv-x="800" d="M179 0Q152 0 125 0T70 0T15 0Q12 0 9 3T7 13Q30 98 53 184T101 357T148 529T195 700Q212 700 230 700T265 700T301 700H754Q759 700 762 697T765 689Q765 652 765 615T765 540H289L330 573Q310 496 291 423T254
278T217 138T179 0ZM339 569L534 596L525 567Q526 555 526 544T527 519Q529 475 531 430T534 340T537 250T541 160H754Q759 160 762 157T765 149Q765 111 765 74T765 0H369Q366 0 364 0T360 2T358 7Q356 76 354 144T349 281T345 422T339 569ZM143 260H329Q339 260
349 260T370 260L381 267V108H154Q150 108 147 111T143 119V260ZM402 428H714Q719 428 722 425T725 417Q725 382 725 348T725 277H402V428Z" />
<glyph unicode="&#xc7;" horiz-adv-x="600" d="M336 -20Q261 -20 205 -2T110 50T53 132T34 241V463Q34 520 53 567T111 648T205 701T332 720Q388 720 433 710T511 684T558 652Q561 650 562 648T563 642T564 635Q564 590 564 541T564 443Q523 443 482 443T398 443Q392
443 390 446T388 454Q388 466 388 479T388 511T388 557L415 515Q391 529 371 534T327 539Q301 539 282 529T254 499T244 447V269Q244 242 249 223T268 191Q281 178 301 173T350 167Q402 167 447 178T547 218H567Q567 196 567 175T567 133T567 91T567 47Q567 44
566 42T563 36Q549 23 517 10T438 -11T336 -20ZM453 -139Q453 -200 413 -227T302 -254Q255 -254 229 -250T193 -237T183 -217Q183 -196 183 -181T183 -151T183 -116H195Q210 -122 225 -125T259 -128Q281 -128 293 -122T306 -97Q306 -80 288 -71T236 -54Q229 -52
228 -46T228 -35Q232 -25 237 -12T247 17T257 44T265 64Q268 69 274 72T300 76T363 78Q361 68 359 56T355 31T352 6T348 -17V-28Q401 -35 427 -62T453 -139Z" />
<glyph unicode="&#xc8;" horiz-adv-x="550" d="M16 700H502Q506 700 508 699T511 695T513 689Q513 648 513 609T513 528H27Q24 528 22 529T18 533T16 539Q16 581 16 620T16 700ZM158 429H442Q446 429 448 428T452 424T453 418Q453 392 453 368T453 321T453 272H158V429ZM62
0Q59 0 57 0T54 2T52 6T51 11Q51 60 51 119T51 242T51 374T51 509T51 639H260L254 623Q254 587 254 550T254 474Q254 437 254 399T254 323T254 247T254 172H502Q507 172 510 169T513 161Q513 120 513 81T513 0H62ZM243 938Q261 910 278 883T312 830T347 775Q325
775 302 775T254 775T201 775Q193 775 189 776T181 782Q157 805 139 822T105 855T73 887T36 922Q32 927 34 932T42 938Q78 938 109 938T172 938T243 938Z" />
<glyph unicode="&#xc9;" horiz-adv-x="550" d="M16 700H502Q506 700 508 699T511 695T513 689Q513 648 513 609T513 528H27Q24 528 22 529T18 533T16 539Q16 581 16 620T16 700ZM158 429H442Q446 429 448 428T452 424T453 418Q453 392 453 368T453 321T453 272H158V429ZM62
0Q59 0 57 0T54 2T52 6T51 11Q51 60 51 119T51 242T51 374T51 509T51 639H260L254 623Q254 587 254 550T254 474Q254 437 254 399T254 323T254 247T254 172H502Q507 172 510 169T513 161Q513 120 513 81T513 0H62ZM283 938Q322 938 354 938T417 938T484 938Q490
938 492 932T490 921Q470 902 454 887T422 856T388 823T346 782Q343 778 338 777T325 775Q298 775 273 775T225 775T179 775Q197 803 214 829T248 883T283 938Z" />
<glyph unicode="&#xca;" horiz-adv-x="550" d="M16 700H502Q506 700 508 699T511 695T513 689Q513 648 513 609T513 528H27Q24 528 22 529T18 533T16 539Q16 581 16 620T16 700ZM158 429H442Q446 429 448 428T452 424T453 418Q453 392 453 368T453 321T453 272H158V429ZM62
0Q59 0 57 0T54 2T52 6T51 11Q51 60 51 119T51 242T51 374T51 509T51 639H260L254 623Q254 587 254 550T254 474Q254 437 254 399T254 323T254 247T254 172H502Q507 172 510 169T513 161Q513 120 513 81T513 0H62ZM184 947Q202 947 228 947T281 947T327 947Q335
947 340 944T358 928Q365 921 381 904T419 864T463 818T504 775Q469 775 431 775T358 775Q347 775 342 777T330 784Q319 793 301 811T248 865L299 842Q282 842 265 842T229 842L279 865Q247 831 226 811T185 775H44Q40 775 38 776T34 779T33 783Q33 787 36 791T52
808Q64 821 81 839T118 878T155 917T184 947Z" />
<glyph unicode="&#xcb;" horiz-adv-x="550" d="M16 700H502Q506 700 508 699T511 695T513 689Q513 648 513 609T513 528H27Q24 528 22 529T18 533T16 539Q16 581 16 620T16 700ZM158 429H442Q446 429 448 428T452 424T453 418Q453 392 453 368T453 321T453 272H158V429ZM62
0Q59 0 57 0T54 2T52 6T51 11Q51 60 51 119T51 242T51 374T51 509T51 639H260L254 623Q254 587 254 550T254 474Q254 437 254 399T254 323T254 247T254 172H502Q507 172 510 169T513 161Q513 120 513 81T513 0H62ZM68 933Q106 933 144 933T220 933Q224 933 226
932T229 928T231 922V779Q194 779 156 779T79 779Q76 779 74 780T70 784T68 790V933ZM295 933Q332 933 370 933T447 933Q451 933 453 932T456 928T458 922V779Q420 779 382 779T306 779Q303 779 301 780T297 784T295 790V933Z" />
<glyph unicode="&#xcc;" horiz-adv-x="500" d="M351 62H145L149 84Q149 118 149 153T149 222Q149 269 149 320T149 424T149 532T149 638H358L351 616Q351 580 351 542T351 467Q351 417 351 366T351 264T351 163T351 62ZM457 0H54Q52 0 50 0T47 2T44 6T43 11Q43
34 43 66T43 130T43 185H446Q449 185 451 184T455 180T457 174Q457 151 457 119T457 55T457 0ZM43 700H446Q451 700 454 697T457 689Q457 672 457 650T457 602T457 555T457 515H54Q50 515 47 518T43 526Q43 543 43 565T43 613T43 660T43 700ZM230 938Q248 910 265
883T299 830T334 775Q312 775 289 775T241 775T188 775Q180 775 176 776T168 782Q144 805 126 822T92 855T60 887T23 922Q19 927 21 932T29 938Q65 938 96 938T159 938T230 938Z" />
<glyph unicode="&#xcd;" horiz-adv-x="500" d="M351 62H145L149 84Q149 118 149 153T149 222Q149 269 149 320T149 424T149 532T149 638H358L351 616Q351 580 351 542T351 467Q351 417 351 366T351 264T351 163T351 62ZM457 0H54Q52 0 50 0T47 2T44 6T43 11Q43
34 43 66T43 130T43 185H446Q449 185 451 184T455 180T457 174Q457 151 457 119T457 55T457 0ZM43 700H446Q451 700 454 697T457 689Q457 672 457 650T457 602T457 555T457 515H54Q50 515 47 518T43 526Q43 543 43 565T43 613T43 660T43 700ZM270 938Q309 938 341
938T404 938T471 938Q477 938 479 932T477 921Q457 902 441 887T409 856T375 823T333 782Q330 778 325 777T312 775Q285 775 260 775T212 775T166 775Q184 803 201 829T235 883T270 938Z" />
<glyph unicode="&#xce;" horiz-adv-x="500" d="M351 62H145L149 84Q149 118 149 153T149 222Q149 269 149 320T149 424T149 532T149 638H358L351 616Q351 580 351 542T351 467Q351 417 351 366T351 264T351 163T351 62ZM457 0H54Q52 0 50 0T47 2T44 6T43 11Q43
34 43 66T43 130T43 185H446Q449 185 451 184T455 180T457 174Q457 151 457 119T457 55T457 0ZM43 700H446Q451 700 454 697T457 689Q457 672 457 650T457 602T457 555T457 515H54Q50 515 47 518T43 526Q43 543 43 565T43 613T43 660T43 700ZM171 947Q189 947 215
947T268 947T314 947Q322 947 327 944T345 928Q352 921 368 904T406 864T450 818T491 775Q456 775 418 775T345 775Q334 775 329 777T317 784Q306 793 288 811T235 865L286 842Q269 842 252 842T216 842L266 865Q234 831 213 811T172 775H31Q27 775 25 776T21 779T20
783Q20 787 23 791T39 808Q51 821 68 839T105 878T142 917T171 947Z" />
<glyph unicode="&#xcf;" horiz-adv-x="500" d="M351 62H145L149 84Q149 118 149 153T149 222Q149 269 149 320T149 424T149 532T149 638H358L351 616Q351 580 351 542T351 467Q351 417 351 366T351 264T351 163T351 62ZM457 0H54Q52 0 50 0T47 2T44 6T43 11Q43
34 43 66T43 130T43 185H446Q449 185 451 184T455 180T457 174Q457 151 457 119T457 55T457 0ZM43 700H446Q451 700 454 697T457 689Q457 672 457 650T457 602T457 555T457 515H54Q50 515 47 518T43 526Q43 543 43 565T43 613T43 660T43 700ZM55 933Q93 933 131
933T207 933Q211 933 213 932T216 928T218 922V779Q181 779 143 779T66 779Q63 779 61 780T57 784T55 790V933ZM282 933Q319 933 357 933T434 933Q438 933 440 932T443 928T445 922V779Q407 779 369 779T293 779Q290 779 288 780T284 784T282 790V933Z" />
<glyph unicode="&#xd0;" horiz-adv-x="650" d="M5 410H299Q304 410 307 407T310 399Q310 374 310 350T310 300H16Q11 300 8 303T5 311Q5 337 5 361T5 410ZM615 243Q615 187 599 142T553 66T480 17T383 0Q352 0 318 0T249 0T180 0T115 0T59 0Q54 0 51 3T48 11Q48
90 48 168T48 326T48 483T48 641H260L252 625Q252 584 252 541T252 455Q252 420 252 386T252 318T252 250T252 181Q264 181 281 181T315 181T345 181Q371 181 385 188T405 212T412 253V452Q412 465 410 475T405 493T396 506Q392 511 386 514T371 518T351 519Q313
519 272 519T188 519T104 519T24 519Q21 519 19 520T15 524T13 530Q13 572 13 615T13 700Q56 700 102 700T194 700T287 700T376 700Q434 700 479 684T554 636T600 560T615 458V243Z" />
<glyph unicode="&#xd1;" horiz-adv-x="650" d="M233 0Q189 0 143 0T51 0Q48 0 46 1T42 5T40 11Q40 82 40 152T40 292T40 432T40 573Q40 605 40 636T40 700Q67 700 98 700T159 700T206 700Q215 700 220 699T230 693T241 674Q260 640 277 607T310 542T343 479T376
416T409 353T443 285L398 314H468L455 283Q444 326 436 360T422 420T415 469T411 513T410 558Q410 597 410 628T410 700Q455 700 505 700T599 700Q604 700 607 697T610 689Q610 615 610 541T610 393T610 245T610 97Q610 72 610 48T610 0Q583 0 553 0T496 0T448
0Q441 0 436 3T420 24Q388 81 361 131T309 228T259 323T207 424L254 393H186L198 423Q208 379 214 345T224 283T230 235T232 195T233 158Q233 120 233 79T233 0ZM460 902Q483 902 503 909T539 933H557Q557 907 557 879T557 826Q557 817 556 813T550 803Q534 786
511 776T454 766Q420 766 393 773T341 789T292 805T240 812Q217 812 197 805T161 781H143Q143 807 143 835T143 888Q143 896 144 900T150 911Q166 928 189 938T246 948Q280 948 307 941T359 925T408 909T460 902Z" />
<glyph unicode="&#xd2;" horiz-adv-x="650" d="M326 720Q412 720 476 687T576 593T612 443V253Q612 168 577 107T477 13T324 -20Q238 -19 174 13T74 107T38 253V443Q38 531 74 593T175 687T326 720ZM238 254Q238 223 245 206T263 179Q273 170 289 165T327 159Q353
159 372 169T401 201T412 254V450Q412 468 410 481T402 504T389 521Q379 531 363 536T326 542Q297 542 278 531T248 500T238 450V254ZM305 938Q323 910 340 883T374 830T409 775Q387 775 364 775T316 775T263 775Q255 775 251 776T243 782Q219 805 201 822T167
855T135 887T98 922Q94 927 96 932T104 938Q140 938 171 938T234 938T305 938Z" />
<glyph unicode="&#xd3;" horiz-adv-x="650" d="M326 720Q412 720 476 687T576 593T612 443V253Q612 168 577 107T477 13T324 -20Q238 -19 174 13T74 107T38 253V443Q38 531 74 593T175 687T326 720ZM238 254Q238 223 245 206T263 179Q273 170 289 165T327 159Q353
159 372 169T401 201T412 254V450Q412 468 410 481T402 504T389 521Q379 531 363 536T326 542Q297 542 278 531T248 500T238 450V254ZM345 938Q384 938 416 938T479 938T546 938Q552 938 554 932T552 921Q532 902 516 887T484 856T450 823T408 782Q405 778 400
777T387 775Q360 775 335 775T287 775T241 775Q259 803 276 829T310 883T345 938Z" />
<glyph unicode="&#xd4;" horiz-adv-x="650" d="M326 720Q412 720 476 687T576 593T612 443V253Q612 168 577 107T477 13T324 -20Q238 -19 174 13T74 107T38 253V443Q38 531 74 593T175 687T326 720ZM238 254Q238 223 245 206T263 179Q273 170 289 165T327 159Q353
159 372 169T401 201T412 254V450Q412 468 410 481T402 504T389 521Q379 531 363 536T326 542Q297 542 278 531T248 500T238 450V254ZM246 947Q264 947 290 947T343 947T389 947Q397 947 402 944T420 928Q427 921 443 904T481 864T525 818T566 775Q531 775 493
775T420 775Q409 775 404 777T392 784Q381 793 363 811T310 865L361 842Q344 842 327 842T291 842L341 865Q309 831 288 811T247 775H106Q102 775 100 776T96 779T95 783Q95 787 98 791T114 808Q126 821 143 839T180 878T217 917T246 947Z" />
<glyph unicode="&#xd5;" horiz-adv-x="650" d="M326 720Q412 720 476 687T576 593T612 443V253Q612 168 577 107T477 13T324 -20Q238 -19 174 13T74 107T38 253V443Q38 531 74 593T175 687T326 720ZM238 254Q238 223 245 206T263 179Q273 170 289 165T327 159Q353
159 372 169T401 201T412 254V450Q412 468 410 481T402 504T389 521Q379 531 363 536T326 542Q297 542 278 531T248 500T238 450V254ZM435 902Q458 902 478 909T514 933H532Q532 907 532 879T532 826Q532 817 531 813T525 803Q509 786 486 776T429 766Q395 766
368 773T316 789T267 805T215 812Q192 812 172 805T136 781H118Q118 807 118 835T118 888Q118 896 119 900T125 911Q141 928 164 938T221 948Q255 948 282 941T334 925T383 909T435 902Z" />
<glyph unicode="&#xd6;" horiz-adv-x="650" d="M326 720Q412 720 476 687T576 593T612 443V253Q612 168 577 107T477 13T324 -20Q238 -19 174 13T74 107T38 253V443Q38 531 74 593T175 687T326 720ZM238 254Q238 223 245 206T263 179Q273 170 289 165T327 159Q353
159 372 169T401 201T412 254V450Q412 468 410 481T402 504T389 521Q379 531 363 536T326 542Q297 542 278 531T248 500T238 450V254ZM130 933Q168 933 206 933T282 933Q286 933 288 932T291 928T293 922V779Q256 779 218 779T141 779Q138 779 136 780T132 784T130
790V933ZM357 933Q394 933 432 933T509 933Q513 933 515 932T518 928T520 922V779Q482 779 444 779T368 779Q365 779 363 780T359 784T357 790V933Z" />
<glyph unicode="&#xd7;" horiz-adv-x="600" d="M200 539Q203 539 206 536Q290 453 377 367T548 197Q519 168 488 138T428 77Q427 76 426 75T422 74Q421 74 420 75T416 77Q360 133 302 189T187 303T73 416Q102 445 132 475T194 536Q196 538 197 538T200 539ZM74
194Q158 278 245 365T416 536Q418 538 419 538T422 539Q424 539 425 539T428 536Q433 532 450 515T489 477T527 440T548 419Q492 363 434 306T318 191T203 77Q202 76 201 75T197 74Q196 74 195 75T191 77Q179 89 164 104T132 136T101 167T74 194Z" />
<glyph unicode="&#xd8;" horiz-adv-x="650" d="M610 776Q582 720 555 665T501 559L489 404H375L391 425Q391 375 382 336T351 267Q338 247 322 228T286 191T244 156Q251 135 255 114T268 72Q258 52 246 28T223 -21T203 -64Q199 -73 196 -74T186 -76Q181 -76 160
-76T112 -76T64 -76T39 -76Q50 -53 65 -21T95 43T118 90L224 303H276L260 279Q261 314 266 344T281 401T308 448Q323 470 340 490T378 527T422 561Q413 581 403 601T382 640Q397 676 411 706T434 757Q440 770 444 773T458 776Q479 776 506 776T562 776T610 776ZM326
720Q412 720 476 687T576 593T612 443V253Q612 168 577 107T477 13T324 -20Q238 -19 174 13T74 107T38 253V443Q38 531 74 593T175 687T326 720ZM238 254Q238 223 245 206T263 179Q273 170 289 165T327 159Q353 159 372 169T401 201T412 254V450Q412 468 410 481T402
504T389 521Q379 531 363 536T326 542Q297 542 278 531T248 500T238 450V254Z" />
<glyph unicode="&#xd9;" horiz-adv-x="650" d="M603 0Q576 0 541 0T471 0T411 0Q409 0 407 0T404 2T402 4T401 7T400 11Q400 97 400 183T400 355T400 528T400 700Q426 700 461 700T531 700T592 700Q595 700 597 699T601 695T603 689Q603 616 603 543T603 396T603
249T603 102Q603 74 603 48T603 0ZM209 -10Q167 -10 137 2T86 38T57 97T47 177Q47 247 47 317T47 457T47 601Q47 626 47 650T47 700Q95 700 143 700T239 700Q242 700 244 699T248 695T250 689Q250 611 250 533T250 376T250 221Q250 197 260 187T293 177Q318 177
341 184T384 208T421 249L420 98H380Q363 65 339 41T283 3T209 -10ZM305 938Q323 910 340 883T374 830T409 775Q387 775 364 775T316 775T263 775Q255 775 251 776T243 782Q219 805 201 822T167 855T135 887T98 922Q94 927 96 932T104 938Q140 938 171 938T234
938T305 938Z" />
<glyph unicode="&#xda;" horiz-adv-x="650" d="M603 0Q576 0 541 0T471 0T411 0Q409 0 407 0T404 2T402 4T401 7T400 11Q400 97 400 183T400 355T400 528T400 700Q426 700 461 700T531 700T592 700Q595 700 597 699T601 695T603 689Q603 616 603 543T603 396T603
249T603 102Q603 74 603 48T603 0ZM209 -10Q167 -10 137 2T86 38T57 97T47 177Q47 247 47 317T47 457T47 601Q47 626 47 650T47 700Q95 700 143 700T239 700Q242 700 244 699T248 695T250 689Q250 611 250 533T250 376T250 221Q250 197 260 187T293 177Q318 177
341 184T384 208T421 249L420 98H380Q363 65 339 41T283 3T209 -10ZM345 938Q384 938 416 938T479 938T546 938Q552 938 554 932T552 921Q532 902 516 887T484 856T450 823T408 782Q405 778 400 777T387 775Q360 775 335 775T287 775T241 775Q259 803 276 829T310
883T345 938Z" />
<glyph unicode="&#xdb;" horiz-adv-x="650" d="M603 0Q576 0 541 0T471 0T411 0Q409 0 407 0T404 2T402 4T401 7T400 11Q400 97 400 183T400 355T400 528T400 700Q426 700 461 700T531 700T592 700Q595 700 597 699T601 695T603 689Q603 616 603 543T603 396T603
249T603 102Q603 74 603 48T603 0ZM209 -10Q167 -10 137 2T86 38T57 97T47 177Q47 247 47 317T47 457T47 601Q47 626 47 650T47 700Q95 700 143 700T239 700Q242 700 244 699T248 695T250 689Q250 611 250 533T250 376T250 221Q250 197 260 187T293 177Q318 177
341 184T384 208T421 249L420 98H380Q363 65 339 41T283 3T209 -10ZM246 947Q264 947 290 947T343 947T389 947Q397 947 402 944T420 928Q427 921 443 904T481 864T525 818T566 775Q531 775 493 775T420 775Q409 775 404 777T392 784Q381 793 363 811T310 865L361
842Q344 842 327 842T291 842L341 865Q309 831 288 811T247 775H106Q102 775 100 776T96 779T95 783Q95 787 98 791T114 808Q126 821 143 839T180 878T217 917T246 947Z" />
<glyph unicode="&#xdc;" horiz-adv-x="650" d="M603 0Q576 0 541 0T471 0T411 0Q409 0 407 0T404 2T402 4T401 7T400 11Q400 97 400 183T400 355T400 528T400 700Q426 700 461 700T531 700T592 700Q595 700 597 699T601 695T603 689Q603 616 603 543T603 396T603
249T603 102Q603 74 603 48T603 0ZM209 -10Q167 -10 137 2T86 38T57 97T47 177Q47 247 47 317T47 457T47 601Q47 626 47 650T47 700Q95 700 143 700T239 700Q242 700 244 699T248 695T250 689Q250 611 250 533T250 376T250 221Q250 197 260 187T293 177Q318 177
341 184T384 208T421 249L420 98H380Q363 65 339 41T283 3T209 -10ZM130 933Q168 933 206 933T282 933Q286 933 288 932T291 928T293 922V779Q256 779 218 779T141 779Q138 779 136 780T132 784T130 790V933ZM357 933Q394 933 432 933T509 933Q513 933 515 932T518
928T520 922V779Q482 779 444 779T368 779Q365 779 363 780T359 784T357 790V933Z" />
<glyph unicode="&#xdd;" horiz-adv-x="650" d="M438 0Q406 0 367 0T290 0T219 0Q216 0 214 1T210 5T208 11Q208 82 208 155T208 300H438Q438 268 438 235T438 167T438 101Q438 74 438 49T438 0ZM10 700Q62 700 119 700T227 700Q233 700 236 699T243 694T248 683Q261
635 271 589T290 499T306 415T317 340L287 373H361L332 341Q336 378 343 419T359 506T380 600T405 700Q456 700 512 700T615 700Q624 700 627 695T628 679Q609 632 589 584T549 486T507 387T465 288T423 192Q360 192 320 192T258 195T227 199T216 206Q203 240 184
285T144 381T99 488T53 597T10 700ZM343 938Q382 938 414 938T477 938T544 938Q550 938 552 932T550 921Q530 902 514 887T482 856T448 823T406 782Q403 778 398 777T385 775Q358 775 333 775T285 775T239 775Q257 803 274 829T308 883T343 938Z" />
<glyph unicode="&#xde;" horiz-adv-x="600" d="M47 700Q95 700 143 700T239 700Q244 700 247 697T250 689Q250 603 250 517T250 345T250 172T250 0Q202 0 154 0T58 0Q55 0 53 1T49 5T47 11Q47 85 47 158T47 304T47 451T47 598Q47 623 47 648T47 700ZM150 614Q194
614 239 614T329 614Q387 614 431 598T505 552T550 478T565 379V328Q565 273 550 230T507 157T438 110T348 94Q302 94 255 94T161 94L150 88V268Q188 268 225 268T301 268Q323 268 335 273T353 292T358 328V374Q358 391 355 402T346 420Q339 427 329 430T299 433Q275
433 252 433T205 433Q194 433 183 433T161 433Q156 433 153 436T150 444Q150 486 150 528T150 614Z" />
<glyph unicode="&#xdf;" horiz-adv-x="600" d="M303 764Q348 764 391 757T470 732T526 684T547 607V570Q547 538 542 515T526 474T494 436L470 414Q453 399 448 393T443 381Q443 376 449 370T474 348L496 330Q527 306 542 287T563 245T569 188V145Q569 100 547
65T484 10T392 -10Q355 -10 325 -3T282 11Q281 13 281 15T280 19Q280 59 280 98T280 177H300Q316 170 330 167T364 163Q376 163 384 165T396 172Q399 176 401 180T403 191Q403 200 400 207T387 222T360 244L324 273Q299 294 288 318T276 376V390Q276 410 281 428T297
462T322 492L357 525Q370 537 376 544T385 556T388 569Q388 584 373 590T318 596Q291 596 273 591T243 575Q236 568 231 559T224 537T222 509Q222 458 222 407T222 305T222 202T222 100Q222 83 222 67T222 34T222 0Q178 0 134 0T46 0Q43 0 41 1T37 5T35 10Q35 78
35 146T35 282T35 419T35 554Q35 618 68 665T162 738T303 764Z" />
<glyph unicode="&#xe0;" horiz-adv-x="600" d="M536 352Q536 332 536 312T536 272T536 231T536 190Q536 184 538 179T547 173Q548 172 550 172T555 171Q556 171 557 171T560 171H583Q583 131 583 91T583 11Q583 6 580 3T572 0Q567 0 545 0T505 0Q473 0 444 9T392
35T356 79T343 140Q343 173 343 206T343 272Q343 283 343 293T343 313T343 334Q343 357 335 370T308 388T254 394Q224 394 195 391T137 383T80 368H60Q60 405 60 441T60 514Q60 518 61 520T63 524Q70 531 101 539T178 554T272 560Q341 560 390 548T472 511T520
446T536 352ZM217 166Q217 149 224 142T249 134Q270 134 289 138T325 151T360 173L369 80H337Q323 52 302 32T250 1T182 -10Q136 -10 102 7T49 55T30 131V170Q30 204 40 232T71 279T121 309T189 320Q227 320 262 320T327 320T380 320Q388 320 392 310T397 279T399
223Q374 223 350 223T300 223T251 223Q242 223 236 221T225 214Q221 210 219 204T217 190V166ZM286 814Q304 782 321 751T357 688T392 626Q359 626 321 626T246 626Q239 626 234 628T227 633Q198 666 174 692T127 744T78 798Q74 803 76 808T85 814Q119 814 151
814T217 814T286 814Z" />
<glyph unicode="&#xe1;" horiz-adv-x="600" d="M536 352Q536 332 536 312T536 272T536 231T536 190Q536 184 538 179T547 173Q548 172 550 172T555 171Q556 171 557 171T560 171H583Q583 131 583 91T583 11Q583 6 580 3T572 0Q567 0 545 0T505 0Q473 0 444 9T392
35T356 79T343 140Q343 173 343 206T343 272Q343 283 343 293T343 313T343 334Q343 357 335 370T308 388T254 394Q224 394 195 391T137 383T80 368H60Q60 405 60 441T60 514Q60 518 61 520T63 524Q70 531 101 539T178 554T272 560Q341 560 390 548T472 511T520
446T536 352ZM217 166Q217 149 224 142T249 134Q270 134 289 138T325 151T360 173L369 80H337Q323 52 302 32T250 1T182 -10Q136 -10 102 7T49 55T30 131V170Q30 204 40 232T71 279T121 309T189 320Q227 320 262 320T327 320T380 320Q388 320 392 310T397 279T399
223Q374 223 350 223T300 223T251 223Q242 223 236 221T225 214Q221 210 219 204T217 190V166ZM328 814Q381 814 429 814T529 814Q535 814 538 809T536 798Q511 770 488 745T441 693T387 633Q385 630 380 628T368 626Q332 626 294 626T222 626Q240 657 257 688T292
750T328 814Z" />
<glyph unicode="&#xe2;" horiz-adv-x="600" d="M536 352Q536 332 536 312T536 272T536 231T536 190Q536 184 538 179T547 173Q548 172 550 172T555 171Q556 171 557 171T560 171H583Q583 131 583 91T583 11Q583 6 580 3T572 0Q567 0 545 0T505 0Q473 0 444 9T392
35T356 79T343 140Q343 173 343 206T343 272Q343 283 343 293T343 313T343 334Q343 357 335 370T308 388T254 394Q224 394 195 391T137 383T80 368H60Q60 405 60 441T60 514Q60 518 61 520T63 524Q70 531 101 539T178 554T272 560Q341 560 390 548T472 511T520
446T536 352ZM217 166Q217 149 224 142T249 134Q270 134 289 138T325 151T360 173L369 80H337Q323 52 302 32T250 1T182 -10Q136 -10 102 7T49 55T30 131V170Q30 204 40 232T71 279T121 309T189 320Q227 320 262 320T327 320T380 320Q388 320 392 310T397 279T399
223Q374 223 350 223T300 223T251 223Q242 223 236 221T225 214Q221 210 219 204T217 190V166ZM240 826Q270 826 300 826T360 826Q368 826 373 822T390 804Q397 795 414 775T453 727T497 673T537 624Q505 624 472 624T405 624Q394 624 389 626T376 635Q367 644
346 665T287 725L339 705H275L326 726Q289 688 267 665T225 624H98Q93 624 91 625T88 628T87 633Q87 638 90 642T105 661Q116 675 134 697T173 745T212 792T240 826Z" />
<glyph unicode="&#xe3;" horiz-adv-x="600" d="M536 352Q536 332 536 312T536 272T536 231T536 190Q536 184 538 179T547 173Q548 172 550 172T555 171Q556 171 557 171T560 171H583Q583 131 583 91T583 11Q583 6 580 3T572 0Q567 0 545 0T505 0Q473 0 444 9T392
35T356 79T343 140Q343 173 343 206T343 272Q343 283 343 293T343 313T343 334Q343 357 335 370T308 388T254 394Q224 394 195 391T137 383T80 368H60Q60 405 60 441T60 514Q60 518 61 520T63 524Q70 531 101 539T178 554T272 560Q341 560 390 548T472 511T520
446T536 352ZM217 166Q217 149 224 142T249 134Q270 134 289 138T325 151T360 173L369 80H337Q323 52 302 32T250 1T182 -10Q136 -10 102 7T49 55T30 131V170Q30 204 40 232T71 279T121 309T189 320Q227 320 262 320T327 320T380 320Q388 320 392 310T397 279T399
223Q374 223 350 223T300 223T251 223Q242 223 236 221T225 214Q221 210 219 204T217 190V166ZM402 773Q430 773 453 785T494 822H514Q514 804 514 781T514 737T514 700Q514 692 513 684T507 669Q492 649 462 637T396 624Q362 624 339 631T298 649T259 666T212
674Q184 674 161 662T120 625H100Q100 644 100 668T100 716T100 754Q100 762 101 766T107 778Q122 798 152 810T218 823Q252 823 275 816T316 798T355 781T402 773Z" />
<glyph unicode="&#xe4;" horiz-adv-x="600" d="M536 352Q536 332 536 312T536 272T536 231T536 190Q536 184 538 179T547 173Q548 172 550 172T555 171Q556 171 557 171T560 171H583Q583 131 583 91T583 11Q583 6 580 3T572 0Q567 0 545 0T505 0Q473 0 444 9T392
35T356 79T343 140Q343 173 343 206T343 272Q343 283 343 293T343 313T343 334Q343 357 335 370T308 388T254 394Q224 394 195 391T137 383T80 368H60Q60 405 60 441T60 514Q60 518 61 520T63 524Q70 531 101 539T178 554T272 560Q341 560 390 548T472 511T520
446T536 352ZM217 166Q217 149 224 142T249 134Q270 134 289 138T325 151T360 173L369 80H337Q323 52 302 32T250 1T182 -10Q136 -10 102 7T49 55T30 131V170Q30 204 40 232T71 279T121 309T189 320Q227 320 262 320T327 320T380 320Q388 320 392 310T397 279T399
223Q374 223 350 223T300 223T251 223Q242 223 236 221T225 214Q221 210 219 204T217 190V166ZM106 775Q142 775 185 775T264 775Q268 775 270 774T273 770T275 764V618Q239 618 196 618T117 618Q114 618 112 619T108 623T106 629V775ZM339 775Q375 775 418 775T497
775Q501 775 503 774T506 770T508 764V618Q472 618 429 618T350 618Q347 618 345 619T341 623T339 629V775Z" />
<glyph unicode="&#xe5;" horiz-adv-x="600" d="M536 352Q536 332 536 312T536 272T536 231T536 190Q536 184 538 179T547 173Q548 172 550 172T555 171Q556 171 557 171T560 171H583Q583 131 583 91T583 11Q583 6 580 3T572 0Q567 0 545 0T505 0Q473 0 444 9T392
35T356 79T343 140Q343 173 343 206T343 272Q343 283 343 293T343 313T343 334Q343 357 335 370T308 388T254 394Q224 394 195 391T137 383T80 368H60Q60 405 60 441T60 514Q60 518 61 520T63 524Q70 531 101 539T178 554T272 560Q341 560 390 548T472 511T520
446T536 352ZM217 166Q217 149 224 142T249 134Q270 134 289 138T325 151T360 173L369 80H337Q323 52 302 32T250 1T182 -10Q136 -10 102 7T49 55T30 131V170Q30 204 40 232T71 279T121 309T189 320Q227 320 262 320T327 320T380 320Q388 320 392 310T397 279T399
223Q374 223 350 223T300 223T251 223Q242 223 236 221T225 214Q221 210 219 204T217 190V166ZM307 875Q361 875 396 861T448 821T466 759V716Q466 663 427 632T307 600Q227 600 188 631T148 716V759Q148 795 165 820T218 860T307 875ZM307 785Q285 785 273 777T261
752V722Q261 715 264 709T273 699Q279 694 287 692T307 690Q329 690 341 698T353 722V752Q353 759 351 765T343 775Q337 780 328 782T307 785Z" />
<glyph unicode="&#xe6;" horiz-adv-x="850" d="M241 559Q289 559 327 546T395 508T444 445L405 487H449L408 445Q437 499 486 529T601 559Q669 559 715 534T784 462T807 347Q807 320 807 293T807 239Q807 236 806 234T803 230T797 229Q768 229 728 229T642 229T557
229T487 229L425 223V326Q447 326 473 326T526 326T580 326T627 326Q627 328 627 330T627 336T627 341Q627 357 626 367T618 384Q613 391 602 395T571 400Q550 400 537 394T519 374T513 339V237Q513 208 521 192T544 165Q559 154 581 150T635 145Q664 145 688 148T734
157T777 173H797Q797 135 797 101T797 28Q797 26 796 23T791 18Q778 11 739 0T633 -12Q581 -12 537 1T460 41T404 105L445 66H402L442 105Q420 67 387 42T312 3T224 -10Q158 -10 117 9T57 62T37 134V187Q37 218 48 244T79 289T128 318T193 329Q238 329 271 324T328
311T366 293H392V229Q375 229 349 229T299 229T264 229Q247 229 239 226T225 218Q221 213 219 206T216 191V182Q216 158 227 148T259 138H262Q282 138 296 143T320 160T329 193V327Q329 351 319 365T286 386T222 393Q179 393 144 387T77 370H57Q57 409 57 444T57
518Q57 520 58 522T60 526Q66 533 90 540T152 553T241 559Z" />
<glyph unicode="&#xe7;" horiz-adv-x="500" d="M317 563Q352 563 384 559T438 548T467 534Q469 533 469 531T470 526Q470 484 470 443T470 359H450Q419 370 390 376T322 382Q294 382 274 374T244 347T233 298V250Q233 228 239 212T259 184Q270 175 285 170T322
165Q348 165 369 167T409 175T450 187H470Q470 146 470 105T470 21Q470 19 470 17T467 13Q461 7 439 1T384 -10T317 -15Q249 -15 196 0T106 46T51 122T32 227V319Q32 389 64 444T159 531T317 563ZM310 78Q308 68 306 56T302 31T299 6T295 -17V-28Q348 -35 374 -62T400
-139Q400 -200 360 -227T249 -254Q202 -254 176 -250T140 -237T130 -217Q130 -196 130 -181T130 -151T130 -116H142Q157 -122 172 -125T206 -128Q228 -128 240 -122T253 -97Q253 -80 235 -71T183 -54Q176 -52 175 -46T175 -35Q179 -25 184 -12T194 17T204 44T212
64Q215 69 221 72T247 76T310 78Z" />
<glyph unicode="&#xe8;" horiz-adv-x="600" d="M302 564Q383 564 440 535T527 454T557 329V235Q557 232 556 230T552 226T546 225H315Q300 225 286 225T257 225H198V321H375Q375 325 375 327T375 336Q375 355 371 368T359 389Q351 398 339 402T309 406Q277 406
260 389T242 338V217Q242 200 245 187T258 164Q269 153 290 148T353 143Q385 143 412 145T467 154T522 168H542Q542 132 542 97T542 25Q542 23 541 21T538 17Q529 8 499 0T427 -12T338 -17Q265 -17 211 -2T119 44T64 118T45 219V328Q45 380 62 423T114 498T195
547T302 564ZM280 814Q298 782 315 751T351 688T386 626Q353 626 315 626T240 626Q233 626 228 628T221 633Q192 666 168 692T121 744T72 798Q68 803 70 808T79 814Q113 814 145 814T211 814T280 814Z" />
<glyph unicode="&#xe9;" horiz-adv-x="600" d="M302 564Q383 564 440 535T527 454T557 329V235Q557 232 556 230T552 226T546 225H315Q300 225 286 225T257 225H198V321H375Q375 325 375 327T375 336Q375 355 371 368T359 389Q351 398 339 402T309 406Q277 406
260 389T242 338V217Q242 200 245 187T258 164Q269 153 290 148T353 143Q385 143 412 145T467 154T522 168H542Q542 132 542 97T542 25Q542 23 541 21T538 17Q529 8 499 0T427 -12T338 -17Q265 -17 211 -2T119 44T64 118T45 219V328Q45 380 62 423T114 498T195
547T302 564ZM322 814Q375 814 423 814T523 814Q529 814 532 809T530 798Q505 770 482 745T435 693T381 633Q379 630 374 628T362 626Q326 626 288 626T216 626Q234 657 251 688T286 750T322 814Z" />
<glyph unicode="&#xea;" horiz-adv-x="600" d="M302 564Q383 564 440 535T527 454T557 329V235Q557 232 556 230T552 226T546 225H315Q300 225 286 225T257 225H198V321H375Q375 325 375 327T375 336Q375 355 371 368T359 389Q351 398 339 402T309 406Q277 406
260 389T242 338V217Q242 200 245 187T258 164Q269 153 290 148T353 143Q385 143 412 145T467 154T522 168H542Q542 132 542 97T542 25Q542 23 541 21T538 17Q529 8 499 0T427 -12T338 -17Q265 -17 211 -2T119 44T64 118T45 219V328Q45 380 62 423T114 498T195
547T302 564ZM234 826Q264 826 294 826T354 826Q362 826 367 822T384 804Q391 795 408 775T447 727T491 673T531 624Q499 624 466 624T399 624Q388 624 383 626T370 635Q361 644 340 665T281 725L333 705H269L320 726Q283 688 261 665T219 624H92Q87 624 85 625T82
628T81 633Q81 638 84 642T99 661Q110 675 128 697T167 745T206 792T234 826Z" />
<glyph unicode="&#xeb;" horiz-adv-x="600" d="M302 564Q383 564 440 535T527 454T557 329V235Q557 232 556 230T552 226T546 225H315Q300 225 286 225T257 225H198V321H375Q375 325 375 327T375 336Q375 355 371 368T359 389Q351 398 339 402T309 406Q277 406
260 389T242 338V217Q242 200 245 187T258 164Q269 153 290 148T353 143Q385 143 412 145T467 154T522 168H542Q542 132 542 97T542 25Q542 23 541 21T538 17Q529 8 499 0T427 -12T338 -17Q265 -17 211 -2T119 44T64 118T45 219V328Q45 380 62 423T114 498T195
547T302 564ZM100 775Q136 775 179 775T258 775Q262 775 264 774T267 770T269 764V618Q233 618 190 618T111 618Q108 618 106 619T102 623T100 629V775ZM333 775Q369 775 412 775T491 775Q495 775 497 774T500 770T502 764V618Q466 618 423 618T344 618Q341 618
339 619T335 623T333 629V775Z" />
<glyph unicode="&#xec;" horiz-adv-x="350" d="M95 11Q95 40 95 75T95 147T95 222T95 294T95 359H83Q78 359 73 359T61 359T50 359T38 359Q34 359 31 362T27 370Q27 414 27 458T27 547Q51 547 77 547T131 547T184 547T236 547T284 547Q287 547 289 546T293 542T295
535Q295 483 295 427T295 314T295 201T295 92Q295 77 295 62T295 31T295 0Q247 0 201 0T106 0Q102 0 99 3T95 11ZM174 806Q192 774 209 743T245 680T280 618Q247 618 209 618T134 618Q127 618 122 620T115 625Q86 658 62 684T15 736T-34 790Q-38 795 -36 800T-27
806Q7 806 39 806T105 806T174 806Z" />
<glyph unicode="&#xed;" horiz-adv-x="350" d="M95 11Q95 40 95 75T95 147T95 222T95 294T95 359H83Q78 359 73 359T61 359T50 359T38 359Q34 359 31 362T27 370Q27 414 27 458T27 547Q51 547 77 547T131 547T184 547T236 547T284 547Q287 547 289 546T293 542T295
535Q295 483 295 427T295 314T295 201T295 92Q295 77 295 62T295 31T295 0Q247 0 201 0T106 0Q102 0 99 3T95 11ZM216 806Q269 806 317 806T417 806Q423 806 426 801T424 790Q399 762 376 737T329 685T275 625Q273 622 268 620T256 618Q220 618 182 618T110 618Q128
649 145 680T180 742T216 806Z" />
<glyph unicode="&#xee;" horiz-adv-x="350" d="M95 11Q95 40 95 75T95 147T95 222T95 294T95 359H83Q78 359 73 359T61 359T50 359T38 359Q34 359 31 362T27 370Q27 414 27 458T27 547Q51 547 77 547T131 547T184 547T236 547T284 547Q287 547 289 546T293 542T295
535Q295 483 295 427T295 314T295 201T295 92Q295 77 295 62T295 31T295 0Q247 0 201 0T106 0Q102 0 99 3T95 11ZM128 818Q158 818 188 818T248 818Q256 818 261 814T278 796Q285 787 302 767T341 719T385 665T425 616Q393 616 360 616T293 616Q282 616 277 618T264
627Q255 636 234 657T175 717L227 697H163L214 718Q177 680 155 657T113 616H-14Q-19 616 -21 617T-24 620T-25 625Q-25 630 -22 634T-7 653Q4 667 22 689T61 737T100 784T128 818Z" />
<glyph unicode="&#xef;" horiz-adv-x="350" d="M95 11Q95 40 95 75T95 147T95 222T95 294T95 359H83Q78 359 73 359T61 359T50 359T38 359Q34 359 31 362T27 370Q27 414 27 458T27 547Q51 547 77 547T131 547T184 547T236 547T284 547Q287 547 289 546T293 542T295
535Q295 483 295 427T295 314T295 201T295 92Q295 77 295 62T295 31T295 0Q247 0 201 0T106 0Q102 0 99 3T95 11ZM-6 767Q30 767 73 767T152 767Q156 767 158 766T161 762T163 756V610Q127 610 84 610T5 610Q2 610 0 611T-4 615T-6 621V767ZM227 767Q263 767 306
767T385 767Q389 767 391 766T394 762T396 756V610Q360 610 317 610T238 610Q235 610 233 611T229 615T227 621V767Z" />
<glyph unicode="&#xf0;" horiz-adv-x="600" d="M552 749Q552 723 552 698T552 648Q552 643 551 640T548 634T539 630L449 606Q429 601 407 600T362 598T318 591L101 532Q101 558 101 582T101 632Q101 641 104 644T115 650L246 685Q274 693 298 694T346 696T389
703L552 749ZM218 497Q256 497 281 488T327 460H403V309Q378 331 355 342T294 353Q275 353 262 346T243 325T237 291V224Q237 213 238 204T243 187T251 175Q259 167 270 163T298 159Q320 159 334 167T355 191T363 228V340Q363 382 355 421T329 499T285 576T222
654T138 737V757Q191 757 244 757T350 757Q357 757 361 755T373 746Q408 711 437 674T490 598T529 518T553 433T562 340V226Q562 152 529 97T437 13T299 -17Q221 -17 162 8T71 85T38 217V317Q38 372 61 412T125 475T218 497Z" />
<glyph unicode="&#xf1;" horiz-adv-x="600" d="M557 0Q509 0 463 0T368 0Q365 0 363 1T359 5T357 11Q357 67 357 123T357 236T357 349Q357 366 350 374T326 382Q315 382 303 380T278 371T252 355T225 332V461H267Q288 493 310 514T360 546T420 557Q452 557 477
547T520 516T547 467T557 399Q557 347 557 297T557 198T557 98Q557 74 557 50T557 0ZM247 0Q220 0 186 0T118 0T58 0Q55 0 53 0T50 2T48 6T47 11Q47 66 47 120T47 230T47 339T47 449Q47 476 47 501T47 547Q76 547 110 547T178 547T236 547Q240 547 242 546T245
542T247 535Q247 447 247 358T247 179T247 0ZM395 773Q423 773 446 785T487 822H507Q507 804 507 781T507 737T507 700Q507 692 506 684T500 669Q485 649 455 637T389 624Q355 624 332 631T291 649T252 666T205 674Q177 674 154 662T113 625H93Q93 644 93 668T93
716T93 754Q93 762 94 766T100 778Q115 798 145 810T211 823Q245 823 268 816T309 798T348 781T395 773Z" />
<glyph unicode="&#xf2;" horiz-adv-x="600" d="M300 564Q362 564 411 549T494 503T546 428T564 326V220Q564 145 533 92T442 11T300 -17Q238 -17 189 -2T106 44T54 119T36 220V326Q36 403 67 455T158 536T300 564ZM300 386Q278 386 264 379T243 357T236 317V229Q236
211 240 198T253 177Q261 169 272 165T300 161Q322 161 336 168T357 190T364 229V317Q364 336 360 349T348 371Q340 379 329 382T300 386ZM278 814Q296 782 313 751T349 688T384 626Q351 626 313 626T238 626Q231 626 226 628T219 633Q190 666 166 692T119 744T70
798Q66 803 68 808T77 814Q111 814 143 814T209 814T278 814Z" />
<glyph unicode="&#xf3;" horiz-adv-x="600" d="M300 564Q362 564 411 549T494 503T546 428T564 326V220Q564 145 533 92T442 11T300 -17Q238 -17 189 -2T106 44T54 119T36 220V326Q36 403 67 455T158 536T300 564ZM300 386Q278 386 264 379T243 357T236 317V229Q236
211 240 198T253 177Q261 169 272 165T300 161Q322 161 336 168T357 190T364 229V317Q364 336 360 349T348 371Q340 379 329 382T300 386ZM320 814Q373 814 421 814T521 814Q527 814 530 809T528 798Q503 770 480 745T433 693T379 633Q377 630 372 628T360 626Q324
626 286 626T214 626Q232 657 249 688T284 750T320 814Z" />
<glyph unicode="&#xf4;" horiz-adv-x="600" d="M300 564Q362 564 411 549T494 503T546 428T564 326V220Q564 145 533 92T442 11T300 -17Q238 -17 189 -2T106 44T54 119T36 220V326Q36 403 67 455T158 536T300 564ZM300 386Q278 386 264 379T243 357T236 317V229Q236
211 240 198T253 177Q261 169 272 165T300 161Q322 161 336 168T357 190T364 229V317Q364 336 360 349T348 371Q340 379 329 382T300 386ZM232 826Q262 826 292 826T352 826Q360 826 365 822T382 804Q389 795 406 775T445 727T489 673T529 624Q497 624 464 624T397
624Q386 624 381 626T368 635Q359 644 338 665T279 725L331 705H267L318 726Q281 688 259 665T217 624H90Q85 624 83 625T80 628T79 633Q79 638 82 642T97 661Q108 675 126 697T165 745T204 792T232 826Z" />
<glyph unicode="&#xf5;" horiz-adv-x="600" d="M300 564Q362 564 411 549T494 503T546 428T564 326V220Q564 145 533 92T442 11T300 -17Q238 -17 189 -2T106 44T54 119T36 220V326Q36 403 67 455T158 536T300 564ZM300 386Q278 386 264 379T243 357T236 317V229Q236
211 240 198T253 177Q261 169 272 165T300 161Q322 161 336 168T357 190T364 229V317Q364 336 360 349T348 371Q340 379 329 382T300 386ZM394 773Q422 773 445 785T486 822H506Q506 804 506 781T506 737T506 700Q506 692 505 684T499 669Q484 649 454 637T388
624Q354 624 331 631T290 649T251 666T204 674Q176 674 153 662T112 625H92Q92 644 92 668T92 716T92 754Q92 762 93 766T99 778Q114 798 144 810T210 823Q244 823 267 816T308 798T347 781T394 773Z" />
<glyph unicode="&#xf6;" horiz-adv-x="600" d="M300 564Q362 564 411 549T494 503T546 428T564 326V220Q564 145 533 92T442 11T300 -17Q238 -17 189 -2T106 44T54 119T36 220V326Q36 403 67 455T158 536T300 564ZM300 386Q278 386 264 379T243 357T236 317V229Q236
211 240 198T253 177Q261 169 272 165T300 161Q322 161 336 168T357 190T364 229V317Q364 336 360 349T348 371Q340 379 329 382T300 386ZM98 775Q134 775 177 775T256 775Q260 775 262 774T265 770T267 764V618Q231 618 188 618T109 618Q106 618 104 619T100 623T98
629V775ZM331 775Q367 775 410 775T489 775Q493 775 495 774T498 770T500 764V618Q464 618 421 618T342 618Q339 618 337 619T333 623T331 629V775Z" />
<glyph unicode="&#xf7;" horiz-adv-x="600" d="M60 386H529Q534 386 537 383T540 375Q540 332 540 294T540 213H71Q68 213 66 214T62 218T60 224Q60 267 60 305T60 386ZM208 587Q243 587 268 587T320 587T381 587Q385 587 387 586T390 582T392 576V440Q358 440
332 440T280 440T219 440Q216 440 214 441T210 445T208 451V587ZM208 159Q243 159 268 159T320 159T381 159Q385 159 387 158T390 154T392 148V12Q358 12 332 12T280 12T219 12Q216 12 214 13T210 17T208 23V159Z" />
<glyph unicode="&#xf8;" horiz-adv-x="600" d="M552 620Q537 594 522 568T493 516T464 464L440 306H330L343 326Q344 285 335 254T307 200Q289 176 264 155T208 113Q224 99 240 84T272 54Q263 37 252 16T230 -27T211 -63Q207 -70 204 -71T195 -73Q191 -73 169
-73T121 -73T74 -73T48 -73Q57 -54 70 -28T97 23T118 61L214 235H263L257 215Q257 242 261 265T273 308T293 345Q313 371 339 392T402 433Q386 449 370 465T337 499Q345 525 353 551T369 603Q372 613 377 616T390 620Q404 620 426 620T472 620T518 620T552 620ZM300
564Q362 564 411 549T494 503T546 428T564 326V220Q564 145 533 92T442 11T300 -17Q238 -17 189 -2T106 44T54 119T36 220V326Q36 403 67 455T158 536T300 564ZM300 386Q278 386 264 379T243 357T236 317V229Q236 211 240 198T253 177Q261 169 272 165T300 161Q322
161 336 168T357 190T364 229V317Q364 336 360 349T348 371Q340 379 329 382T300 386Z" />
<glyph unicode="&#xf9;" horiz-adv-x="600" d="M236 547Q240 547 242 546T245 542T247 536Q247 494 247 451T247 365T247 280T247 198Q247 184 254 176T275 167Q288 167 300 169T325 177T349 192T375 215V85H334Q317 58 296 36T247 2T184 -11Q154 -11 129 -1T85
30T57 81T47 152Q47 188 47 227T47 306T47 387Q47 427 47 467T47 547Q94 547 141 547T236 547ZM542 547Q546 547 548 546T551 542T553 536Q553 463 553 391T553 245T553 98Q553 80 553 63T553 30T553 0Q526 0 491 0T422 0T364 0Q361 0 359 1T355 5T353 11Q353 100
353 189T353 368T353 547Q379 547 413 547T482 547T542 547ZM279 814Q297 782 314 751T350 688T385 626Q352 626 314 626T239 626Q232 626 227 628T220 633Q191 666 167 692T120 744T71 798Q67 803 69 808T78 814Q112 814 144 814T210 814T279 814Z" />
<glyph unicode="&#xfa;" horiz-adv-x="600" d="M236 547Q240 547 242 546T245 542T247 536Q247 494 247 451T247 365T247 280T247 198Q247 184 254 176T275 167Q288 167 300 169T325 177T349 192T375 215V85H334Q317 58 296 36T247 2T184 -11Q154 -11 129 -1T85
30T57 81T47 152Q47 188 47 227T47 306T47 387Q47 427 47 467T47 547Q94 547 141 547T236 547ZM542 547Q546 547 548 546T551 542T553 536Q553 463 553 391T553 245T553 98Q553 80 553 63T553 30T553 0Q526 0 491 0T422 0T364 0Q361 0 359 1T355 5T353 11Q353 100
353 189T353 368T353 547Q379 547 413 547T482 547T542 547ZM321 814Q374 814 422 814T522 814Q528 814 531 809T529 798Q504 770 481 745T434 693T380 633Q378 630 373 628T361 626Q325 626 287 626T215 626Q233 657 250 688T285 750T321 814Z" />
<glyph unicode="&#xfb;" horiz-adv-x="600" d="M236 547Q240 547 242 546T245 542T247 536Q247 494 247 451T247 365T247 280T247 198Q247 184 254 176T275 167Q288 167 300 169T325 177T349 192T375 215V85H334Q317 58 296 36T247 2T184 -11Q154 -11 129 -1T85
30T57 81T47 152Q47 188 47 227T47 306T47 387Q47 427 47 467T47 547Q94 547 141 547T236 547ZM542 547Q546 547 548 546T551 542T553 536Q553 463 553 391T553 245T553 98Q553 80 553 63T553 30T553 0Q526 0 491 0T422 0T364 0Q361 0 359 1T355 5T353 11Q353 100
353 189T353 368T353 547Q379 547 413 547T482 547T542 547ZM233 826Q263 826 293 826T353 826Q361 826 366 822T383 804Q390 795 407 775T446 727T490 673T530 624Q498 624 465 624T398 624Q387 624 382 626T369 635Q360 644 339 665T280 725L332 705H268L319
726Q282 688 260 665T218 624H91Q86 624 84 625T81 628T80 633Q80 638 83 642T98 661Q109 675 127 697T166 745T205 792T233 826Z" />
<glyph unicode="&#xfc;" horiz-adv-x="600" d="M236 547Q240 547 242 546T245 542T247 536Q247 494 247 451T247 365T247 280T247 198Q247 184 254 176T275 167Q288 167 300 169T325 177T349 192T375 215V85H334Q317 58 296 36T247 2T184 -11Q154 -11 129 -1T85
30T57 81T47 152Q47 188 47 227T47 306T47 387Q47 427 47 467T47 547Q94 547 141 547T236 547ZM542 547Q546 547 548 546T551 542T553 536Q553 463 553 391T553 245T553 98Q553 80 553 63T553 30T553 0Q526 0 491 0T422 0T364 0Q361 0 359 1T355 5T353 11Q353 100
353 189T353 368T353 547Q379 547 413 547T482 547T542 547ZM99 775Q135 775 178 775T257 775Q261 775 263 774T266 770T268 764V618Q232 618 189 618T110 618Q107 618 105 619T101 623T99 629V775ZM332 775Q368 775 411 775T490 775Q494 775 496 774T499 770T501
764V618Q465 618 422 618T343 618Q340 618 338 619T334 623T332 629V775Z" />
<glyph unicode="&#xfd;" horiz-adv-x="600" d="M564 547Q569 547 573 543T575 531Q561 461 547 394T519 260T491 123T461 -21Q450 -79 424 -119T357 -179T259 -200Q238 -200 211 -200T159 -200T115 -200T94 -200Q89 -200 86 -197T83 -189V-30H103Q136 -30 169
-30T235 -30Q259 -30 270 -21T287 13Q294 56 303 106T322 210T342 321T362 435T382 547Q399 547 422 547T470 547T520 547T564 547ZM215 547Q223 547 227 543T233 532Q242 488 249 449T263 375T275 308T286 246T297 188H367L338 40H172Q162 40 156 42T147 49T140
66Q136 83 127 120T104 209T76 319T47 435T21 547Q38 547 62 547T114 547T168 547T215 547ZM322 814Q375 814 423 814T523 814Q529 814 532 809T530 798Q505 770 482 745T435 693T381 633Q379 630 374 628T362 626Q326 626 288 626T216 626Q234 657 251 688T286
750T322 814Z" />
<glyph unicode="&#xfe;" horiz-adv-x="600" d="M47 743Q72 743 106 743T175 743T236 743Q240 743 242 742T245 738T247 732Q247 659 247 566T247 370T247 164T247 -33T247 -200Q221 -200 187 -200T118 -200T58 -200Q55 -200 53 -199T49 -195T47 -189Q47 -136 47
-68T47 77T47 234T47 388T47 529T47 642Q47 671 47 696T47 743ZM409 557Q457 557 491 537T543 478T562 384V175Q562 130 550 96T515 38T464 2T401 -10Q373 -10 349 0T303 27T266 67H220V195Q235 182 249 174T280 162T312 158Q329 158 340 164T357 183T363 216V322Q363
339 360 350T349 368Q343 374 334 377T312 380Q299 380 285 376T258 362T232 339V464H266Q283 495 305 515T354 546T409 557Z" />
<glyph unicode="&#xff;" horiz-adv-x="600" d="M564 547Q569 547 573 543T575 531Q561 461 547 394T519 260T491 123T461 -21Q450 -79 424 -119T357 -179T259 -200Q238 -200 211 -200T159 -200T115 -200T94 -200Q89 -200 86 -197T83 -189V-30H103Q136 -30 169
-30T235 -30Q259 -30 270 -21T287 13Q294 56 303 106T322 210T342 321T362 435T382 547Q399 547 422 547T470 547T520 547T564 547ZM215 547Q223 547 227 543T233 532Q242 488 249 449T263 375T275 308T286 246T297 188H367L338 40H172Q162 40 156 42T147 49T140
66Q136 83 127 120T104 209T76 319T47 435T21 547Q38 547 62 547T114 547T168 547T215 547ZM100 775Q136 775 179 775T258 775Q262 775 264 774T267 770T269 764V618Q233 618 190 618T111 618Q108 618 106 619T102 623T100 629V775ZM333 775Q369 775 412 775T491
775Q495 775 497 774T500 770T502 764V618Q466 618 423 618T344 618Q341 618 339 619T335 623T333 629V775Z" />
<glyph unicode="&#x2013;" horiz-adv-x="600" d="M50 394H539Q543 394 545 393T548 389T550 383Q550 338 550 295T550 206H61Q58 206 56 207T52 211T50 217Q50 262 50 305T50 394Z" />
<glyph unicode="&#x2014;" horiz-adv-x="600" d="M-11 394H600Q604 394 606 393T609 389T611 383Q611 338 611 295T611 206H0Q-3 206 -5 207T-9 211T-11 217Q-11 262 -11 305T-11 394Z" />
<glyph unicode="&#x2018;" horiz-adv-x="350" d="M145 750Q206 750 249 750T328 750Q317 695 307 643T287 540T266 433Q229 433 202 433T153 433T106 433T48 433Q44 433 42 434T40 438T40 445Q54 487 69 535T102 637T135 743Q137 748 139 749T145 750Z" />
<glyph unicode="&#x2019;" horiz-adv-x="350" d="M239 433Q178 433 136 433T57 433Q67 489 77 540T97 643T118 750Q156 750 183 750T232 750T279 750T336 750Q340 750 342 749T344 745T344 738Q331 696 316 648T283 546T249 440Q248 436 246 435T239 433Z" />
<glyph unicode="&#x201a;" horiz-adv-x="350" d="M239 -106Q178 -106 136 -106T57 -106Q67 -51 77 0T97 104T118 211Q156 211 183 211T232 211T279 211T336 211Q340 211 342 210T344 205T344 198Q331 157 316 108T283 7T249 -99Q248 -103 246 -104T239 -106Z" />
<glyph unicode="&#x201c;" horiz-adv-x="600" d="M313 750Q305 709 297 670T281 592T265 514T248 433Q220 433 198 433T155 433T110 433T53 433Q47 433 45 436T45 446Q60 485 74 522T101 594T128 667T157 743Q159 748 161 749T167 750Q197 750 217 750T252 750T281
750T313 750ZM577 750Q569 709 561 670T545 592T529 514T512 433Q484 433 462 433T419 433T374 433T317 433Q311 433 309 436T309 446Q324 485 338 522T365 594T392 667T421 743Q423 748 425 749T431 750Q461 750 481 750T516 750T545 750T577 750Z" />
<glyph unicode="&#x201d;" horiz-adv-x="600" d="M312 433Q320 475 328 514T344 591T360 669T377 750Q405 750 427 750T470 750T515 750T572 750Q578 750 580 747T580 737Q565 698 551 661T524 589T497 516T468 440Q467 436 465 435T458 433Q428 433 408 433T373
433T344 433T312 433ZM48 433Q56 475 64 514T80 591T96 669T113 750Q141 750 163 750T206 750T251 750T308 750Q314 750 316 747T316 737Q301 698 287 661T260 589T233 516T204 440Q203 436 201 435T194 433Q164 433 144 433T109 433T80 433T48 433Z" />
<glyph unicode="&#x201e;" horiz-adv-x="600" d="M312 -107Q320 -65 328 -26T344 51T360 129T377 210Q405 210 427 210T470 210T515 210T572 210Q578 210 580 207T580 197Q565 158 551 121T524 49T497 -24T468 -100Q467 -104 465 -105T458 -107Q428 -107 408 -107T373
-107T344 -107T312 -107ZM48 -107Q56 -65 64 -26T80 51T96 129T113 210Q141 210 163 210T206 210T251 210T308 210Q314 210 316 207T316 197Q301 158 287 121T260 49T233 -24T204 -100Q203 -104 201 -105T194 -107Q164 -107 144 -107T109 -107T80 -107T48 -107Z"
/>
<glyph unicode="&#x2022;" horiz-adv-x="600" d="M473 123Q445 123 400 123T306 123T212 123T138 123Q133 123 130 126T127 134V477Q156 477 200 477T294 477T389 477T462 477Q467 477 470 474T473 466V123Z" />
<glyph unicode="&#x2039;" horiz-adv-x="400" d="M389 98V78Q341 78 292 78T196 78Q187 78 184 80T172 90Q169 94 154 111T119 151T78 197T42 239T20 263Q14 271 13 275T11 285Q11 295 11 305T11 325Q33 350 57 377T104 432T145 480T174 512Q180 519 185 520T198
522Q246 522 294 522T389 522V502Q352 460 323 426T267 361T213 299Q239 270 263 242T318 179T389 98Z" />
<glyph unicode="&#x203a;" horiz-adv-x="400" d="M11 503V523Q59 523 109 523T204 523Q213 523 217 521T228 511Q232 507 246 490T281 450T322 404T359 362T380 338Q386 331 387 327T389 316Q389 306 389 296T389 276Q368 251 344 224T297 169T255 121T226 89Q220
82 216 81T203 79Q154 79 106 79T11 79V99Q49 142 78 176T134 240T188 302Q163 331 138 359T82 422T11 503Z" />
</font>
</defs>
</svg>
